<?xml version="1.0" encoding="UTF-8"?>
<!DOCTYPE svg PUBLIC "-//W3C//DTD SVG 1.1//EN" "http://www.w3.org/Graphics/SVG/1.1/DTD/svg11.dtd">
<!-- Creator: CorelDRAW X7 -->
<svg xmlns="http://www.w3.org/2000/svg" xml:space="preserve" width="18.3316mm" height="18.1136mm" version="1.1" style="shape-rendering:geometricPrecision; text-rendering:geometricPrecision; image-rendering:optimizeQuality; fill-rule:evenodd; clip-rule:evenodd"
viewBox="0 0 35824 35398"
 xmlns:xlink="http://www.w3.org/1999/xlink">
 <defs>
  <style type="text/css">
   <![CDATA[
    .fil0 {fill:#0C3843}
    .fil1 {fill:#4EB0AA}
   ]]>
  </style>
 </defs>
 <g id="Layer_x0020_1">
  <metadata id="CorelCorpID_0Corel-Layer"/>
  <g id="_2640697146128">
   <path class="fil0" d="M35744 34204c463,-2561 -1130,-2013 -3461,-2238 -954,-92 -1915,-149 -2846,-258 -1571,-184 -3737,-2850 -4838,-4039 -3486,-3764 -2911,-4064 -7609,-2932 -9898,2387 -11574,13 -15469,-384 -2048,-209 -1429,2728 -1445,4448 -28,3042 725,2520 3483,2513l17704 -5c2038,61 2682,1210 3736,2157 1416,1271 2922,890 5114,890 1696,0 4186,215 5631,-152z"/>
   <path class="fil0" d="M13959 23777c595,-1241 728,-5265 1112,-6257l179 -326c14,-92 63,-111 104,-159 919,1093 1459,1861 3243,2473 1390,478 2805,1045 4178,1447 391,-459 707,-935 859,-1677 -629,-596 -2528,-1382 -3418,-1832 -974,-492 -3131,-2893 -3884,-3858 -6516,-8360 -13587,6395 -14161,9231 2198,1427 9063,1869 11788,958z"/>
   <path class="fil0" d="M17278 2060c-507,-961 -521,-1808 -1804,-2021 -1084,-180 -2139,288 -2727,769 -1413,1155 -2552,3632 -38,4425 -1153,6588 4904,7790 7524,5717 3448,-2727 2547,-8325 -2955,-8890z"/>
   <path class="fil0" d="M23292 24146c849,5860 10345,4977 9425,-1511 -839,-5907 -10366,-4996 -9425,1511z"/>
   <path class="fil1" d="M24123 35213c-248,-2438 -3702,-2092 -4632,-2091 -3355,4 -18177,-236 -19398,184l66 1707c1047,674 742,259 746,260 104,18 530,34 651,36l22567 -96z"/>
  </g>
 </g>
</svg>
