<?xml version="1.0" encoding="UTF-8"?>
<!DOCTYPE svg PUBLIC "-//W3C//DTD SVG 1.1//EN" "http://www.w3.org/Graphics/SVG/1.1/DTD/svg11.dtd">
<!-- Creator: CorelDRAW X7 -->
<svg xmlns="http://www.w3.org/2000/svg" xml:space="preserve" width="271px" height="158px" version="1.1" style="shape-rendering:geometricPrecision; text-rendering:geometricPrecision; image-rendering:optimizeQuality; fill-rule:evenodd; clip-rule:evenodd"
viewBox="0 0 118 69"
 xmlns:xlink="http://www.w3.org/1999/xlink">
 <defs>
  <style type="text/css">
   <![CDATA[
    .str2 {stroke:#FEFEFE;stroke-width:1.74583}
    .str0 {stroke:#FEFEFE;stroke-width:0.909521}
    .str1 {stroke:#0C3843;stroke-width:0.392888}
    .fil2 {fill:#FEFEFE}
    .fil1 {fill:#0C3843}
    .fil0 {fill:#5DB2AC}
   ]]>
  </style>
 </defs>
 <g id="Layer_x0020_1">
  <metadata id="CorelCorpID_0Corel-Layer"/>
  <g id="_2559881186416">
   <polygon class="fil0 str0" points="2,54 118,54 116,59 110,65 103,68 15,69 2,61 1,56 "/>
   <path class="fil1 str1" d="M13 54l92 0c-20,-64 -84,-45 -92,0z"/>
   <path class="fil1" d="M8 59l102 0c0,1 -2,2 -4,3 -1,1 -3,1 -5,1 -4,1 -37,0 -42,0 -9,0 -19,0 -28,0 -8,0 -16,2 -21,-3 -1,0 -2,-1 -2,-1zm7 -5c1,-6 3,-12 5,-16 4,-7 9,-13 15,-16 12,-8 28,-10 41,-4 2,1 5,2 7,4 10,6 19,19 20,32l-88 0zm43 -49c3,-1 5,3 2,4 -3,2 -5,-3 -2,-4zm-6 5c-21,4 -38,14 -42,44 -2,0 -7,-1 -9,0 -2,2 1,6 2,7 3,4 9,7 14,7 7,1 14,0 21,0l41 0c10,0 22,2 29,-2 2,-1 5,-3 6,-4 1,-2 4,-5 3,-7 -1,-2 -6,-1 -9,-1 -1,-1 0,0 -1,-1 0,0 0,-1 0,-1 -2,-21 -20,-39 -41,-42 0,-3 1,-5 -1,-7 -3,-4 -9,-4 -12,0 -2,2 -1,4 -1,7z"/>
   <path class="fil2 str2" d="M59 23c0,-1 0,-2 -1,-3 -3,-2 -29,3 -36,25 -1,3 2,5 4,3 2,-2 4,-15 20,-21 7,-3 12,-2 13,-4z"/>
  </g>
 </g>
</svg>
