<?xml version="1.0" encoding="UTF-8"?>
<!DOCTYPE svg PUBLIC "-//W3C//DTD SVG 1.1//EN" "http://www.w3.org/Graphics/SVG/1.1/DTD/svg11.dtd">
<!-- Creator: CorelDRAW X7 -->
<svg xmlns="http://www.w3.org/2000/svg" xml:space="preserve" width="14.3032mm" height="18.5411mm" version="1.1" style="shape-rendering:geometricPrecision; text-rendering:geometricPrecision; image-rendering:optimizeQuality; fill-rule:evenodd; clip-rule:evenodd"
viewBox="0 0 2973 3854"
 xmlns:xlink="http://www.w3.org/1999/xlink">
 <defs>
  <style type="text/css">
   <![CDATA[
    .fil0 {fill:#0C3843}
    .fil1 {fill:#5DB2AC}
   ]]>
  </style>
 </defs>
 <g id="Layer_x0020_1">
  <metadata id="CorelCorpID_0Corel-Layer"/>
  <g id="_2640568634352">
   <g>
    <path class="fil0" d="M2048 1917c0,363 0,725 1,1088 1,298 -99,871 262,848 328,-21 215,-558 208,-848 -9,-362 -26,-717 -35,-1080 741,-253 594,-1834 -137,-1921 -841,-100 -948,1648 -299,1913z"/>
    <path class="fil0" d="M409 1795c-5,543 -116,1474 -46,1961 59,108 246,91 350,97l118 -130 -38 -1928c132,-90 208,-62 312,-232 158,-258 96,-1400 59,-1509l-186 -9c-114,304 74,958 -147,962 -210,3 -61,-776 -136,-988 -481,-89 17,962 -302,987 -154,11 -92,-378 -91,-522 2,-290 96,-508 -212,-471 -39,78 -234,1438 110,1677l209 105z"/>
   </g>
   <path class="fil1" d="M2264 196c460,-16 576,315 528,769 -155,-467 -89,-474 -528,-769z"/>
  </g>
 </g>
</svg>
