<?xml version="1.0" encoding="UTF-8"?>
<!DOCTYPE svg PUBLIC "-//W3C//DTD SVG 1.1//EN" "http://www.w3.org/Graphics/SVG/1.1/DTD/svg11.dtd">
<!-- Creator: CorelDRAW X7 -->
<svg xmlns="http://www.w3.org/2000/svg" xml:space="preserve" width="22.4204mm" height="21.7304mm" version="1.1" style="shape-rendering:geometricPrecision; text-rendering:geometricPrecision; image-rendering:optimizeQuality; fill-rule:evenodd; clip-rule:evenodd"
viewBox="0 0 8637 8371"
 xmlns:xlink="http://www.w3.org/1999/xlink">
 <defs>
  <style type="text/css">
   <![CDATA[
    .fil3 {fill:#FEFEFE}
    .fil0 {fill:#0C3843}
    .fil2 {fill:#4EB0AA}
    .fil1 {fill:#5DB2AC}
   ]]>
  </style>
 </defs>
 <g id="Layer_x0020_1">
  <metadata id="CorelCorpID_0Corel-Layer"/>
  <g id="_2640570677872">
   <path class="fil0" d="M3661 5363c-513,-3 -1003,-53 -1494,-146 -733,-140 -717,-199 -1281,-371 -168,659 -352,1311 -519,1965 -77,303 -217,508 229,823 300,212 1542,775 1824,252 159,-296 1180,-2335 1241,-2523z"/>
   <path class="fil0" d="M4520 3953c-11,126 -1607,3251 -1893,3822 -138,276 -135,409 -504,450 -612,67 -1823,-426 -1964,-894 -51,-170 268,-1283 329,-1534 111,-449 672,-2825 762,-3044l169 121c669,488 2367,1109 3101,1079zm367 -1758c207,-48 298,40 363,208l203 427c186,254 336,491 509,760 284,442 185,352 649,620 245,141 414,432 565,702 309,552 623,1065 927,1611 442,792 579,825 -470,1396 -126,68 -291,149 -437,199 -233,82 -311,-59 -398,-185 -173,-252 -322,-519 -478,-789l-926 -1612c-239,-467 -54,-739 -191,-1077l-635 -1269 -273 -362c-142,-312 335,-569 592,-629zm-892 1117c2332,1275 -2690,-179 -2680,-784 542,-123 2134,486 2680,784zm717 640c56,66 183,317 233,417 311,628 -181,443 442,1540 320,564 628,1099 957,1659 481,817 564,1014 1531,435 921,-552 939,-624 417,-1536 -314,-550 -642,-1100 -955,-1662 -175,-312 -330,-567 -587,-735 -151,-99 -303,-149 -405,-255l-776 -1179c-43,-108 -152,-378 -208,-453 -353,-472 -1106,26 -1239,323 -179,400 255,670 327,893 -144,-68 -280,-160 -434,-241 -389,-204 -961,-424 -1374,-554 -312,-98 -708,-213 -1051,-236 -491,-34 -420,79 -569,684l-768 3117c-65,275 -223,774 -251,1025 -85,774 2127,1530 2568,1001 111,-134 2020,-4090 2142,-4243z"/>
   <path class="fil1" d="M5755 5813c27,105 904,1634 992,1739l1322 -753 -980 -1726c-223,61 -1079,656 -1334,740z"/>
   <path class="fil0" d="M5112 2860c-129,43 -225,147 -335,178 109,-99 138,-164 338,-207 120,-54 19,-19 60,3l-63 26zm-443 98c77,-104 230,-242 436,-253 -129,72 -337,211 -436,253zm300 -428l-48 -13c-125,87 -223,141 -366,253 -93,130 130,301 130,301 44,46 129,271 171,356 119,236 233,484 353,705 206,376 187,359 192,842 4,386 194,516 283,778 145,-43 1117,-630 1348,-758 -55,-176 -289,-513 -470,-630 -313,-203 -405,-173 -610,-500 -178,-282 -473,-761 -665,-1000 -99,-123 -43,-57 -79,-186 -28,-100 -59,-90 -112,-166l-91 -12c-6,32 78,61 -36,30z"/>
   <path class="fil0" d="M900 4760c440,166 824,286 1320,378 333,62 1211,234 1498,107l336 -651c-509,40 -1129,-36 -1609,-130 -544,-106 -918,-224 -1352,-437l-193 733z"/>
   <path class="fil2" d="M1116 3836c19,316 1143,502 1360,542 337,62 1421,258 1669,54 -37,-425 -2721,-934 -3029,-596z"/>
   <path class="fil0" d="M7036 7984c209,1 709,-302 865,-404 496,-325 434,-264 224,-716l-1324 777c41,120 171,262 235,343z"/>
   <path class="fil0" d="M3811 1834c-58,-349 -361,-1103 -673,-1104 -49,158 211,481 288,586 106,147 270,400 385,518z"/>
   <path class="fil0" d="M4118 1838c70,-188 666,-807 676,-1126 -241,-2 -367,259 -454,453 -59,132 -225,528 -222,673z"/>
   <path class="fil0" d="M2261 1693c30,95 120,118 235,157l999 261c-171,-124 -978,-671 -1234,-418z"/>
   <path class="fil0" d="M4785 2545c-4,-5 -9,-12 -11,-15 -2,-3 -8,-13 -10,-16l21 31zm-252 224l0 -96c70,-6 -40,60 61,-6 71,-47 -32,-13 84,-40l-12 -105c34,52 10,32 75,65l44 -42c90,-44 45,31 65,-74 47,65 -9,18 71,46l1 -101c22,22 27,16 47,56 28,58 8,10 0,58 114,31 30,2 36,-30l-18 -91c28,-15 -23,-21 30,12 41,26 20,23 65,36l7 -84c-240,-104 -760,167 -632,423 112,-22 -113,48 34,-8l42 -19z"/>
   <path class="fil3" d="M8488 125l-2 -114c-92,-14 -59,-22 -128,22l80 -10 50 102z"/>
   <path class="fil3" d="M90 125l37 -107 93 15c-69,-44 -36,-36 -128,-22l-2 114z"/>
   <path class="fil0" d="M5112 2860l63 -26c-41,-22 60,-57 -60,-3l-3 29z"/>
   <path class="fil0" d="M4785 2545l-21 -31c2,3 8,13 10,16 2,3 7,10 11,15z"/>
  </g>
 </g>
</svg>
