<?xml version="1.0" encoding="UTF-8"?>
<!DOCTYPE svg PUBLIC "-//W3C//DTD SVG 1.1//EN" "http://www.w3.org/Graphics/SVG/1.1/DTD/svg11.dtd">
<!-- Creator: CorelDRAW X7 -->
<svg xmlns="http://www.w3.org/2000/svg" xml:space="preserve" width="17.0314mm" height="19.277mm" version="1.1" style="shape-rendering:geometricPrecision; text-rendering:geometricPrecision; image-rendering:optimizeQuality; fill-rule:evenodd; clip-rule:evenodd"
viewBox="0 0 1916 2168"
 xmlns:xlink="http://www.w3.org/1999/xlink">
 <defs>
  <style type="text/css">
   <![CDATA[
    .fil0 {fill:#0C3843}
    .fil1 {fill:#4EB0AA}
   ]]>
  </style>
 </defs>
 <g id="Layer_x0020_1">
  <metadata id="CorelCorpID_0Corel-Layer"/>
  <g id="_2640568663952">
   <path class="fil0" d="M942 0c92,0 280,234 359,313 89,88 87,64 71,131l-161 0c0,153 21,229 -41,229l-430 0c-62,0 -41,-76 -41,-229l-161 0c-17,-75 7,-68 64,-125 67,-66 297,-319 340,-319z"/>
   <path class="fil1" d="M699 767c0,-31 10,-41 41,-41l430 0c57,0 57,81 0,81l-430 0c-31,0 -41,-9 -41,-40z"/>
   <g>
    <path class="fil0" d="M215 1372l-40 0c0,-91 -29,-363 175,-363l1210 0c204,0 175,272 175,363l-40 0c-3,-113 -74,-188 -189,-188l-416 0c-64,0 -97,41 -135,67 -38,-26 -71,-67 -135,-67l-416 0c-115,0 -186,75 -189,188z"/>
    <path class="fil1" d="M404 1278l416 0c46,0 72,54 81,94l-592 0c2,-67 27,-94 95,-94z"/>
    <path class="fil1" d="M1090 1278l416 0c68,0 93,27 95,94l-592 0c9,-40 35,-94 81,-94z"/>
    <path class="fil0" d="M0 1964l0 -431c0,-31 36,-67 67,-67l1776 0c43,0 67,49 67,94 0,441 43,485 -108,485 7,81 52,121 -53,121 -52,0 -71,-80 -81,-121l-1426 0c-6,25 -15,52 -24,70 -39,85 -124,49 -124,24 0,-47 10,-52 14,-94 -80,0 -108,-2 -108,-81z"/>
   </g>
  </g>
 </g>
</svg>
