<?xml version="1.0" encoding="UTF-8"?>
<!DOCTYPE svg PUBLIC "-//W3C//DTD SVG 1.1//EN" "http://www.w3.org/Graphics/SVG/1.1/DTD/svg11.dtd">
<!-- Creator: CorelDRAW X7 -->
<svg xmlns="http://www.w3.org/2000/svg" xml:space="preserve" width="30px" height="30px" version="1.1" style="shape-rendering:geometricPrecision; text-rendering:geometricPrecision; image-rendering:optimizeQuality; fill-rule:evenodd; clip-rule:evenodd"
viewBox="0 0 30 30"
 xmlns:xlink="http://www.w3.org/1999/xlink">
 <defs>
  <style type="text/css">
   <![CDATA[
    .fil0 {fill:none}
    .fil1 {fill:#0B3F59}
    .fil9 {fill:#419DAB}
    .fil6 {fill:url(#id0)}
    .fil3 {fill:url(#id1)}
    .fil4 {fill:url(#id2)}
    .fil5 {fill:url(#id3)}
    .fil2 {fill:url(#id4)}
    .fil7 {fill:url(#id5)}
    .fil8 {fill:url(#id6)}
   ]]>
  </style>
  <linearGradient id="id0" gradientUnits="userSpaceOnUse" x1="18.5008" y1="14.3646" x2="22.8791" y2="14.3646">
   <stop offset="0" style="stop-opacity:1; stop-color:#0B3F59"/>
   <stop offset="1" style="stop-opacity:1; stop-color:#419DAB"/>
  </linearGradient>
  <linearGradient id="id1" gradientUnits="userSpaceOnUse" xlink:href="#id0" x1="21.072" y1="22.6724" x2="26.6941" y2="22.6724">
  </linearGradient>
  <linearGradient id="id2" gradientUnits="userSpaceOnUse" xlink:href="#id0" x1="0.785433" y1="14.9717" x2="16.9394" y2="14.9717">
  </linearGradient>
  <linearGradient id="id3" gradientUnits="userSpaceOnUse" xlink:href="#id0" x1="0.243307" y1="8.46378" x2="4.32165" y2="8.46378">
  </linearGradient>
  <linearGradient id="id4" gradientUnits="userSpaceOnUse" xlink:href="#id0" x1="11.8157" y1="18.5315" x2="20.6268" y2="18.5315">
  </linearGradient>
  <linearGradient id="id5" gradientUnits="userSpaceOnUse" xlink:href="#id0" x1="15.1217" y1="22.8331" x2="21.1606" y2="22.8331">
  </linearGradient>
  <linearGradient id="id6" gradientUnits="userSpaceOnUse" xlink:href="#id0" x1="21.0413" y1="18.411" x2="29.7602" y2="18.411">
  </linearGradient>
 </defs>
 <g id="Layer_x0020_1">
  <metadata id="CorelCorpID_0Corel-Layer"/>
  <g id="_1598408617584">
   <rect class="fil0" width="29.9976" height="29.9976"/>
   <rect class="fil0" width="30" height="30"/>
   <g>
    <path class="fil1" d="M15 21c-1,0 -2,-1 -2,-1 -1,-1 -2,-1 -2,-2 0,0 -1,0 -1,0 0,-1 0,-1 0,-2 1,0 1,0 1,0l-9 0c0,1 0,3 0,4 1,1 1,1 1,2 1,0 1,1 1,1 1,0 1,1 1,1 1,1 3,2 5,2 1,0 3,0 4,-1 0,-1 0,-2 0,-3 0,0 1,-1 1,-1z"/>
    <path class="fil1" d="M12 14l4 0c1,-1 1,-1 2,-2 0,-1 1,-2 1,-3 0,0 0,0 1,0 0,0 0,0 0,0 1,-2 0,-3 -2,-3 0,0 0,0 -1,1l-3 5c0,0 -2,2 -2,2z"/>
    <path class="fil2" d="M12 17c0,1 1,1 1,2 1,0 2,1 3,1 0,1 1,1 2,1 1,0 2,-1 2,-2 1,0 1,0 1,0 -1,0 -1,-1 -1,-1 0,0 0,0 0,-1 -1,0 -1,0 -1,0 -1,-1 -3,-1 -5,0 0,0 -2,0 -2,0z"/>
    <path class="fil3" d="M21 21c0,0 0,1 0,1 0,1 0,1 1,1 0,1 1,2 2,2 1,1 2,1 3,1 -1,-2 -1,-5 -3,-6 0,0 0,0 0,0 -1,-1 -2,-1 -3,-1 0,1 0,1 0,2z"/>
    <path class="fil4" d="M17 15c0,0 0,0 0,-1 -1,0 -3,0 -4,0l-11 0c-1,0 -1,0 -1,0 0,1 0,2 0,2 1,0 3,0 3,0l8 0c0,0 1,0 1,0 1,-1 2,-1 3,-1 0,0 1,0 1,0z"/>
    <path class="fil5" d="M4 13c0,0 0,-2 0,-2 0,-2 0,-3 0,-3 -1,-2 -2,-3 -3,-4l0 0c0,0 0,0 0,0 -1,1 -1,2 -1,3 0,1 1,3 2,5 0,0 1,1 2,1z"/>
    <path class="fil6" d="M19 16c0,1 0,1 1,1 0,1 1,1 1,2 0,0 0,-1 0,-1 1,-1 1,-1 1,-1 0,0 0,0 1,0 0,-1 0,-1 0,-1 0,-2 -1,-4 -2,-6l0 0c0,0 0,0 0,0 0,0 -1,0 -1,1 -1,1 -2,4 -1,5z"/>
    <path class="fil7" d="M15 26c0,0 1,0 1,0 2,-1 3,-2 4,-3 1,0 1,-1 1,-2 0,-1 0,-1 0,-2 0,1 -1,2 -2,2 -1,0 -1,0 -2,0 0,0 -1,0 -1,0 0,1 0,1 0,1 0,1 -1,3 -1,4z"/>
    <path class="fil8" d="M25 21c1,-1 2,-1 3,-2 0,0 1,-1 1,-1 0,0 0,0 0,0l1 -1c-1,0 -2,0 -3,0 -1,-1 -3,-1 -5,0 0,0 -1,1 -1,2 1,0 2,0 3,0 0,0 0,1 1,1 0,0 0,0 0,1z"/>
    <path class="fil9" d="M4 13c2,0 4,-2 4,-4 -1,0 -2,1 -2,1 -1,1 -1,2 -2,3z"/>
   </g>
  </g>
 </g>
</svg>
