<?xml version="1.0" encoding="UTF-8"?>
<!DOCTYPE svg PUBLIC "-//W3C//DTD SVG 1.1//EN" "http://www.w3.org/Graphics/SVG/1.1/DTD/svg11.dtd">
<!-- Creator: CorelDRAW X7 -->
<svg xmlns="http://www.w3.org/2000/svg" xml:space="preserve" width="2.5245mm" height="1.8453mm" version="1.1" style="shape-rendering:geometricPrecision; text-rendering:geometricPrecision; image-rendering:optimizeQuality; fill-rule:evenodd; clip-rule:evenodd"
viewBox="0 0 35 25"
 xmlns:xlink="http://www.w3.org/1999/xlink">
 <defs>
  <style type="text/css">
   <![CDATA[
    .fil0 {fill:#387A78}
    .fil1 {fill:#4FB1AB}
   ]]>
  </style>
 </defs>
 <g id="Layer_x0020_1">
  <metadata id="CorelCorpID_0Corel-Layer"/>
  <g id="_2900165597088">
   <path class="fil0" d="M32 13c0,-1 -1,-1 -1,-1 -3,-1 -6,0 -8,0 -7,3 -13,7 -20,0 -1,0 -2,-1 -3,-2 0,0 0,0 0,0 0,0 1,1 1,2 0,0 1,1 1,1 1,2 2,3 3,4 2,2 5,3 9,2 3,-1 6,-2 9,-4 1,0 2,-1 4,-2 2,0 3,0 5,0z"/>
   <path class="fil1" d="M8 14c1,1 3,1 4,0 3,0 5,-1 8,-2 0,0 1,0 1,0 0,-1 -2,-1 -3,-3 -2,-3 0,-8 4,-8 1,0 1,0 2,0 -1,-1 -2,-1 -3,-1 -3,0 -6,2 -7,4 -1,4 -1,8 -4,10 -1,0 -1,0 -2,0z"/>
   <path class="fil0" d="M2 18c0,0 1,1 1,1 2,2 4,3 7,5 7,3 15,1 21,-4 1,-2 3,-4 3,-6 1,-1 1,-3 1,-4 -1,1 -1,2 -2,5 -1,1 -2,2 -3,3 -2,2 -5,4 -8,5 -5,1 -12,0 -16,-3 -1,0 -2,-1 -3,-1 0,0 -1,-1 -1,-1z"/>
   <path class="fil1" d="M10 20c4,2 9,2 13,0 2,0 3,-1 5,-2 0,-1 1,-1 1,-2 1,0 2,-1 2,-2 -6,0 -9,5 -18,6l-3 0z"/>
   <path class="fil1" d="M21 4c-4,0 -3,5 0,5 2,0 3,-1 2,-3 0,-1 -1,-2 -2,-2z"/>
  </g>
 </g>
</svg>
