<?xml version="1.0" encoding="UTF-8"?>
<!DOCTYPE svg PUBLIC "-//W3C//DTD SVG 1.1//EN" "http://www.w3.org/Graphics/SVG/1.1/DTD/svg11.dtd">
<!-- Creator: CorelDRAW X7 -->
<svg xmlns="http://www.w3.org/2000/svg" xml:space="preserve" width="2.5468mm" height="2.0056mm" version="1.1" style="shape-rendering:geometricPrecision; text-rendering:geometricPrecision; image-rendering:optimizeQuality; fill-rule:evenodd; clip-rule:evenodd"
viewBox="0 0 41 32"
 xmlns:xlink="http://www.w3.org/1999/xlink">
 <defs>
  <style type="text/css">
   <![CDATA[
    .fil0 {fill:#4FB1AB}
   ]]>
  </style>
 </defs>
 <g id="Layer_x0020_1">
  <metadata id="CorelCorpID_0Corel-Layer"/>
  <g id="_2900210110208">
   <path class="fil0" d="M0 8l3 3c0,0 2,-2 3,-2 1,-1 3,-2 4,-3 8,-3 18,-2 24,3 2,0 3,2 4,2l3 -3 0 0c-1,0 -3,-2 -6,-4 -4,-2 -9,-4 -13,-4l-3 0c-2,0 -4,0 -6,1 -4,1 -9,4 -12,7 0,0 -1,0 -1,0z"/>
   <path class="fil0" d="M6 14c0,1 2,2 3,3 0,0 1,-1 2,-2 6,-4 13,-4 19,0 1,1 1,2 2,2 1,-1 3,-2 3,-3 0,0 -2,-2 -3,-2 0,-1 -1,-1 -1,-1 -2,-1 -4,-2 -6,-2 -6,-2 -12,-1 -16,3 -1,0 -3,2 -3,2z"/>
   <path class="fil0" d="M11 20c1,0 3,2 3,3 2,-1 3,-3 6,-3 1,0 3,1 4,1 1,1 1,1 2,2 1,-1 3,-3 3,-3 0,0 -1,-1 -2,-2 -4,-2 -8,-2 -12,-1 0,1 -1,1 -1,1 -1,0 -2,2 -3,2z"/>
   <path class="fil0" d="M20 32l0 0c1,0 1,0 2,0 3,-2 2,-6 -2,-6 -2,0 -3,1 -3,3 0,1 1,3 3,3z"/>
  </g>
 </g>
</svg>
