<?xml version="1.0" encoding="UTF-8"?>
<!DOCTYPE svg PUBLIC "-//W3C//DTD SVG 1.1//EN" "http://www.w3.org/Graphics/SVG/1.1/DTD/svg11.dtd">
<!-- Creator: CorelDRAW X7 -->
<svg xmlns="http://www.w3.org/2000/svg" xml:space="preserve" width="30px" height="30px" version="1.1" style="shape-rendering:geometricPrecision; text-rendering:geometricPrecision; image-rendering:optimizeQuality; fill-rule:evenodd; clip-rule:evenodd"
viewBox="0 0 30 30"
 xmlns:xlink="http://www.w3.org/1999/xlink">
 <defs>
  <style type="text/css">
   <![CDATA[
    .fil0 {fill:none}
    .fil7 {fill:#424242}
    .fil11 {fill:#474747}
    .fil10 {fill:#4C4C4C}
    .fil15 {fill:#565656}
    .fil16 {fill:#5A5A5A}
    .fil21 {fill:#626262}
    .fil19 {fill:#666666}
    .fil8 {fill:#6C6C6C}
    .fil17 {fill:#737373}
    .fil22 {fill:#757575}
    .fil24 {fill:#7E7E7E}
    .fil23 {fill:#838383}
    .fil6 {fill:#888888}
    .fil14 {fill:#909090}
    .fil9 {fill:#959595}
    .fil4 {fill:#9C9C9C}
    .fil18 {fill:#9E9E9E}
    .fil3 {fill:#A4A4A4}
    .fil5 {fill:#A8A8A8}
    .fil12 {fill:#B6B6B6}
    .fil13 {fill:#B9B9B9}
    .fil20 {fill:#BDBDBD}
    .fil2 {fill:#FCFCFC}
    .fil1 {fill:url(#id0)}
   ]]>
  </style>
  <linearGradient id="id0" gradientUnits="userSpaceOnUse" x1="2.80416" y1="15" x2="27.1958" y2="15">
   <stop offset="0" style="stop-opacity:1; stop-color:#0B3F59"/>
   <stop offset="1" style="stop-opacity:1; stop-color:#419DAB"/>
  </linearGradient>
 </defs>
 <g id="Layer_x0020_1">
  <metadata id="CorelCorpID_0Corel-Layer"/>
  <g id="_2246865723568">
   <rect class="fil0" width="30" height="30"/>
   <g>
    <path class="fil1" d="M25 3l0 0 0 0 0 0 0 0 -1 0 0 0 0 0 0 0 0 0 0 0 0 0c0,1 0,1 0,1l0 0 -1 0 0 0 0 0 0 0 0 0 0 0 -1 0 0 1 0 0 0 0 -1 1 0 0 0 0 0 0 0 0 0 0 -1 1 0 0 0 0 0 0 0 0 0 0 -1 1 0 0 0 0 0 0 0 1 -1 -1 0 0 0 0 0 0 0 0 0 0 -1 0 0 0 0 0 0 0 0 0 0 0 0 0 -1 0 0 0 0 0 0 0 0 0 0 0 0 0 0 0 -1 0 0 0 0 0 0 -1 0 0 0 0 -1 0 0 0 0 0 0 0 0 0 0 0 0 0 -1 0 0 0 0 0 0 0 0 0 0 0 0 0 -1 0 0 0 0 0 0 0 0 0 0 0 0 0 -1 -1 0 0 0 0 0 0 0 0 0 0 0 0 -1 0 0 0 0 0 0 0 0 0 0 0 0 0 -1 0 0 0 0 0 0 0 0 0 0 0 -1 0 0 0 0 0 0 0 0 0 0 -1 -1 0 0 0 0 0 0 0 0 0 0 0 0 0 0 0 -1 0 0 0 0 0 0 0 0 0 0 0 0 0 -1 0 0 0 0 0 0 0 0 0 0 0 0 0 0 0 -1 0 0 1 0 0 0 0 0 0c0,0 0,0 0,0l0 0 0 0 0 1 0 0 0 0 0 0 1 0 0 0 0 0 0 0 0 0 0 1 1 0 0 0 0 0 0 0 0 0 0 0 0 0 0 0 0 0 1 0c0,0 0,0 0,0l0 1 0 0 0 0 0 0 0 0 0 0 1 0 0 0 0 0 0 0 0 1 0 0 1 0 0 0 0 0c0,0 0,0 0,0l0 0 0 0 1 0 0 0 0 1 0 0 0 0 0 0 0 0 0 0 0 0 1 0 0 0c0,0 0,0 0,0l0 0 0 0 0 0 0 1 0 0 1 0 0 0 0 0 0 0 0 0 0 0 1 0 0 1 0 0 0 0 0 0 0 0 0 0 0 0 1 0 0 0c0,0 0,0 0,0l0 0c0,0 0,0 0,1l0 0 0 0 0 0 -1 0 0 0 0 0 0 0 0 1 -1 0 0 0 0 0 0 0 0 1 0 0 0 0 -1 1 0 0 0 0 0 0 0 0 0 0 0 0 -1 0 0 1 0 0c0,0 0,0 0,0l0 0 -1 0 0 0 0 0c0,0 0,0 0,0l-1 0 0 0c0,0 0,0 0,0l0 0 -1 0 0 0 0 0 0 0 -1 0 0 0 0 0 0 0 -1 -1 0 0 0 0 0 0 -1 0 0 0 0 0 0 0 0 1 -1 0 0 0 0 0 0 0 0 0 0 0 0 0 0 1c0,0 0,-1 0,0l0 0 0 0 1 0 0 0 0 0 0 0 0 0 0 0c0,0 0,0 0,0l0 0 1 1 0 0c0,0 0,0 0,0l0 0 0 0c0,0 0,0 0,0l0 0 0 0 1 0 0 0 0 0c0,0 0,0 0,0l0 1 0 0c0,0 0,0 0,0l0 0 1 0 0 0 0 0 0 0c0,0 0,0 0,0l0 0 0 0 0 1 0 0 0 0 0 0 0 0 -1 0 0 1 0 0 0 0 0 0 0 0 0 0 0 0 0 1 1 0 0 0 0 0 0 0 0 0 0 0 0 0 1 0 0 -1c0,0 0,0 0,0l0 0 0 0 0 0 0 0 0 0 1 0 0 0 0 0 0 0 0 0 0 0 0 0 0 1 0 0c0,0 0,0 0,0l0 0 1 0c0,0 0,0 0,0l0 0 0 0 0 1 0 0 0 0c0,0 0,0 0,0l0 0 0 0c0,0 0,0 0,0l0 0 1 1 0 0c0,0 0,0 0,0l0 0 0 0c0,0 0,0 0,0l0 0 0 0 0 1 0 0 0 0 0 0 0 0 0 0 1 0 0 0 0 0 0 0 0 0 0 0 0 -1 1 0 0 0 0 0 0 0 0 -1 0 0 0 0 0 0 -1 -1 0 0 0 0 0 0 0 -1 0 0 0 0 0 0c0,0 0,0 0,0l0 -1 0 0 0 0 0 -1 0 0 0 0 0 0 0 -1 0 0c0,0 0,0 0,0l0 0 0 0 1 0 0 -1 0 0 0 0 0 0 0 0 0 0 1 0 0 -1 0 0 0 0 1 0 0 0 0 0 0 0 0 -1 1 0 0 0 0 0 0 0 0 -1 0 0 0 0 0 0c1,0 1,0 1,0l0 0c0,0 0,0 0,0l0 0 0 1 0 0 0 0 0 0 0 0 0 0 0 0 1 0 0 1c0,0 0,0 0,0l0 0 0 0 0 0 0 0 0 1 0 0 1 0 0 0 0 0 0 0 0 0 0 1c0,0 0,0 0,0l0 0 0 0c0,0 0,0 0,0l0 0 0 0 1 0 0 0 0 1 0 0 0 0 0 0 0 0 0 0 0 0 0 1 0 0 1 0 0 0 0 0 0 0 0 1 0 0 0 0 0 0 0 0 1 0 0 0 0 1 0 0 0 0 0 0 0 0 0 0 0 0 0 0 0 0 0 1c1,0 1,0 1,0l0 0 0 0 0 0 0 0 0 1 0 0 0 0 0 0 1 0 0 0 0 0c0,0 0,0 0,0l0 0 0 0 0 0 0 0 1 0 0 -1 0 0 0 0 0 0 0 0 0 0 0 0 0 0 0 -1 0 0 0 0 0 0 0 0 0 0 0 0 0 -1 0 0 0 0 0 0 0 0 0 0 0 0 0 0 0 -1 -1 0 0 0 0 0 0 0 0 0 0 -1 0 0 0 0 0 0 0 0 0 0 0 -1 0 0 0 0 0 0 0 0 0 0 0 0 0 0 0 -1 0 0 0 0 0 0 0 0 0 0 0 0 -1 -1 0 0 0 0 0 0 0 0 0 0 0 0 0 -1 0 0 0 0 0 0 0 0 0 0 0 -1 0 0 0 0 0 0 0 0 0 0 0 0 0 0 0 -1 0 0 0 0 -1 0 0 0 0 0 0 -1 0 0 0 0 0 0 0 0 0 0 0 0 0 -1 0 0 0 0 0 0 0 0 0 0 0 0 0 -1 0 0 0 0 0 0 0 0 0 0 -1 -1 0 0 1 0 0 0 0 0 0 0 1 -1 0 0 0 0 0 0 0 0 0 0 1 -1 0 0 0 0 0 0 0 0 0 0 1 -1 0 0 0 0 1 -1c0,0 0,0 0,0l0 0 0 0 0 0 0 0 0 0 0 -1 0 0c0,0 0,0 1,0l0 0 0 0 0 0 0 0 0 0 0 0 0 -1 0 0 0 0 0 0 0 0 0 0c0,-1 0,-1 0,-1l0 0c0,0 0,0 0,0l0 0 0 0 0 -1 0 0 0 0 0 0 0 0 0 0 -1 0 0 0 0 0 -1 0 0 0z"/>
    <polygon class="fil2" points="26,3 27,3 27,3 27,3 27,3 27,3 27,3 27,4 27,4 27,4 27,3 26,3 26,3 "/>
    <path class="fil3" d="M13 26c0,0 0,0 0,0l0 0z"/>
    <path class="fil4" d="M4 17c0,0 0,0 0,0l0 0z"/>
    <path class="fil5" d="M7 24l-1 0c0,0 0,0 0,0 1,0 0,0 1,0z"/>
    <polygon class="fil6" points="27,5 27,5 27,5 27,5 "/>
    <path class="fil7" d="M12 23l0 0 0 0c0,0 0,0 0,0z"/>
    <polygon class="fil6" points="27,4 27,4 27,4 27,4 "/>
    <path class="fil7" d="M27 4l0 0 0 0c0,0 0,0 0,0z"/>
    <path class="fil7" d="M27 5l0 -1c0,0 0,0 0,1l0 0z"/>
    <polygon class="fil8" points="25,3 25,3 25,3 "/>
    <path class="fil9" d="M6 24l0 -1c0,1 0,1 0,1z"/>
    <path class="fil10" d="M8 18l0 0 0 0c0,0 0,0 0,0z"/>
    <path class="fil11" d="M9 18l0 0 0 0c0,0 0,0 0,0z"/>
    <polygon class="fil5" points="12,23 12,23 12,22 "/>
    <polygon class="fil5" points="8,18 8,18 8,18 "/>
    <polygon class="fil5" points="9,18 9,18 9,18 "/>
    <polygon class="fil12" points="13,25 13,25 13,25 "/>
    <polygon class="fil12" points="7,18 7,18 7,18 "/>
    <polygon class="fil13" points="12,23 12,23 12,23 "/>
    <polygon class="fil14" points="26,3 26,3 26,3 "/>
    <polygon class="fil4" points="5,17 5,17 5,17 "/>
    <polygon class="fil15" points="13,25 13,25 13,25 "/>
    <polygon class="fil12" points="22,11 22,11 21,11 21,11 "/>
    <polygon class="fil12" points="12,24 13,24 12,24 "/>
    <polygon class="fil16" points="12,23 12,23 12,23 "/>
    <polygon class="fil3" points="12,21 12,21 12,20 "/>
    <polygon class="fil16" points="7,18 7,18 7,18 "/>
    <polygon class="fil5" points="6,18 6,17 6,18 "/>
    <polygon class="fil17" points="13,25 13,24 12,24 "/>
    <polygon class="fil16" points="12,21 12,21 12,21 "/>
    <polygon class="fil8" points="6,18 6,17 5,17 "/>
    <polygon class="fil10" points="5,17 5,17 5,17 "/>
    <polygon class="fil4" points="24,20 24,19 24,20 "/>
    <polygon class="fil9" points="23,16 23,16 23,16 "/>
    <polygon class="fil9" points="13,7 13,7 13,7 "/>
    <path class="fil12" d="M25 3c-1,0 -1,0 -1,0l1 0z"/>
    <polygon class="fil18" points="12,7 12,7 12,7 "/>
    <polygon class="fil18" points="11,6 10,6 10,6 "/>
    <polygon class="fil18" points="24,20 24,20 24,20 "/>
    <polygon class="fil18" points="23,17 23,17 23,17 "/>
    <path class="fil18" d="M7 24l0 0c0,0 0,0 0,0z"/>
    <polygon class="fil4" points="7,5 7,5 7,5 "/>
    <polygon class="fil4" points="25,23 25,23 25,23 "/>
    <polygon class="fil4" points="22,13 22,13 22,13 "/>
    <polygon class="fil3" points="22,14 22,14 22,14 "/>
    <polygon class="fil3" points="10,6 10,6 10,6 "/>
    <polygon class="fil3" points="25,24 25,24 25,24 "/>
    <polygon class="fil9" points="17,8 17,8 17,8 "/>
    <path class="fil15" d="M27 6c-1,0 -1,0 -1,0l1 0z"/>
    <polygon class="fil18" points="16,8 16,8 16,8 "/>
    <polygon class="fil18" points="6,5 6,5 6,5 "/>
    <path class="fil19" d="M10 18l0 0c0,0 0,0 0,0z"/>
    <polygon class="fil5" points="23,18 23,18 23,18 "/>
    <polygon class="fil5" points="15,8 15,7 15,8 "/>
    <polygon class="fil5" points="24,21 24,21 24,21 "/>
    <polygon class="fil5" points="6,5 5,5 5,5 "/>
    <polygon class="fil5" points="9,6 9,6 9,6 "/>
    <polygon class="fil5" points="25,25 25,24 25,25 "/>
    <polygon class="fil5" points="12,7 12,6 12,7 "/>
    <path class="fil3" d="M6 23c0,0 0,0 0,0l0 0z"/>
    <path class="fil13" d="M26 7c0,0 0,0 0,0l0 0z"/>
    <polygon class="fil12" points="24,22 24,22 24,22 "/>
    <polygon class="fil12" points="14,7 14,7 14,7 "/>
    <polygon class="fil12" points="24,18 23,18 23,18 "/>
    <polygon class="fil12" points="11,6 11,6 11,6 "/>
    <polygon class="fil12" points="19,8 19,8 19,9 "/>
    <path class="fil17" d="M12 20c0,0 0,0 0,0l0 0z"/>
    <polygon class="fil12" points="22,12 22,12 22,12 "/>
    <polygon class="fil12" points="8,6 8,6 8,6 "/>
    <polygon class="fil12" points="23,16 23,16 23,16 "/>
    <polygon class="fil4" points="25,3 25,3 25,3 "/>
    <path class="fil20" d="M9 23l0 0c0,0 0,0 0,0z"/>
    <path class="fil21" d="M5 20c0,0 0,0 0,0l0 0z"/>
    <path class="fil21" d="M10 25c0,0 0,0 0,0l0 0z"/>
    <path class="fil11" d="M11 27l0 0c0,0 0,0 0,0z"/>
    <path class="fil11" d="M8 23c0,0 0,0 0,0l0 0z"/>
    <path class="fil7" d="M24 3l0 1c0,0 0,0 0,-1z"/>
    <polygon class="fil5" points="23,15 22,15 22,15 "/>
    <polygon class="fil5" points="18,8 18,8 18,8 "/>
    <path class="fil8" d="M6 21c0,0 0,0 0,0l0 0z"/>
    <path class="fil8" d="M9 24c0,0 0,0 0,0l0 0z"/>
    <path class="fil11" d="M5 20c0,0 0,0 0,0l0 0z"/>
    <path class="fil11" d="M10 25c0,0 0,0 0,0l0 0z"/>
    <polygon class="fil18" points="27,5 27,5 27,5 "/>
    <path class="fil8" d="M18 18c0,0 0,0 0,0l0 0z"/>
    <path class="fil8" d="M23 25c0,0 0,0 -1,0l1 0z"/>
    <path class="fil8" d="M9 10c0,0 0,0 0,0l0 0z"/>
    <path class="fil8" d="M11 26c0,0 0,0 0,0l0 0z"/>
    <path class="fil15" d="M3 19c0,-1 0,0 0,0l0 0z"/>
    <path class="fil22" d="M4 19c0,0 0,0 0,0l0 0z"/>
    <polygon class="fil22" points="13,7 13,7 13,7 "/>
    <polygon class="fil22" points="16,8 16,8 16,8 "/>
    <path class="fil16" d="M7 21c0,0 0,0 0,0l0 0z"/>
    <path class="fil15" d="M10 24c0,0 0,0 0,0l0 0z"/>
    <path class="fil15" d="M6 20c0,0 0,0 0,0l0 0z"/>
    <path class="fil11" d="M11 11c0,0 0,0 0,0l0 0z"/>
    <path class="fil10" d="M19 20c0,0 0,0 0,0l0 0z"/>
    <path class="fil10" d="M14 13c0,0 0,0 0,0l0 0z"/>
    <path class="fil10" d="M17 16c0,0 0,0 0,0l0 0z"/>
    <path class="fil10" d="M7 8c0,0 0,0 0,0l0 0z"/>
    <path class="fil10" d="M11 26c0,0 0,0 0,0l0 0z"/>
    <path class="fil7" d="M19 20c0,0 0,0 0,0l0 0z"/>
    <polygon class="fil20" points="23,16 23,16 23,16 "/>
    <polygon class="fil20" points="24,20 24,20 24,20 "/>
    <polygon class="fil20" points="16,8 16,8 16,8 "/>
    <polygon class="fil20" points="13,7 13,7 13,7 "/>
    <polygon class="fil17" points="23,17 23,16 23,16 "/>
    <polygon class="fil22" points="24,20 24,20 24,20 "/>
    <polygon class="fil22" points="7,5 7,5 6,5 "/>
    <polygon class="fil22" points="25,24 25,23 25,23 "/>
    <polygon class="fil13" points="22,13 22,13 22,13 "/>
    <polygon class="fil12" points="17,8 17,8 17,8 "/>
    <polygon class="fil12" points="14,7 14,7 14,7 "/>
    <polygon class="fil12" points="7,5 7,5 7,5 "/>
    <polygon class="fil12" points="24,19 24,19 24,19 "/>
    <polygon class="fil12" points="25,23 25,23 25,23 "/>
    <polygon class="fil20" points="7,5 7,5 7,5 "/>
    <polygon class="fil20" points="25,23 25,23 25,23 "/>
    <polygon class="fil11" points="22,11 22,11 21,11 "/>
    <polygon class="fil11" points="3,19 3,18 3,19 "/>
    <polygon class="fil7" points="25,3 25,3 25,3 "/>
    <polygon class="fil8" points="25,23 25,23 25,23 "/>
    <polygon class="fil16" points="19,9 19,8 18,8 "/>
    <polygon class="fil23" points="12,27 12,27 12,27 "/>
    <polygon class="fil16" points="9,6 9,6 9,6 "/>
    <polygon class="fil16" points="22,12 22,11 21,11 "/>
    <polygon class="fil21" points="23,15 23,15 22,15 "/>
    <polygon class="fil16" points="25,25 25,25 25,25 "/>
    <polygon class="fil8" points="14,7 14,7 13,7 "/>
    <polygon class="fil15" points="5,5 5,5 5,5 "/>
    <polygon class="fil21" points="11,6 11,6 11,6 "/>
    <polygon class="fil7" points="27,5 27,5 27,5 "/>
    <polygon class="fil11" points="7,5 7,5 7,5 "/>
    <polygon class="fil15" points="12,7 12,6 11,6 "/>
    <polygon class="fil8" points="7,5 7,5 7,5 "/>
    <polygon class="fil8" points="17,8 17,8 17,8 "/>
    <polygon class="fil19" points="8,6 8,6 8,6 "/>
    <polygon class="fil15" points="15,8 15,7 15,7 "/>
    <polygon class="fil14" points="3,18 3,18 3,18 "/>
    <polygon class="fil21" points="24,19 24,18 23,18 "/>
    <polygon class="fil8" points="24,19 24,19 24,19 "/>
    <polygon class="fil17" points="22,13 22,13 22,13 "/>
    <polygon class="fil11" points="25,23 25,23 25,23 "/>
    <polygon class="fil16" points="24,21 24,21 24,21 "/>
    <polygon class="fil21" points="24,22 24,22 24,22 "/>
    <polygon class="fil20" points="27,6 27,6 27,6 "/>
    <polygon class="fil7" points="13,7 13,7 13,7 "/>
    <polygon class="fil7" points="23,16 23,16 23,16 "/>
    <polygon class="fil21" points="18,8 18,8 18,8 "/>
    <polygon class="fil10" points="22,14 22,13 22,13 "/>
    <polygon class="fil21" points="14,7 14,7 14,7 "/>
    <polygon class="fil8" points="23,16 23,16 23,16 "/>
    <polygon class="fil15" points="22,14 22,14 22,14 "/>
    <polygon class="fil10" points="23,17 23,17 23,17 "/>
    <polygon class="fil10" points="10,6 10,6 10,6 "/>
    <polygon class="fil19" points="22,12 22,12 22,12 "/>
    <polygon class="fil7" points="17,8 17,8 16,8 "/>
    <polygon class="fil10" points="12,7 12,7 12,7 "/>
    <polygon class="fil11" points="24,20 24,20 24,20 "/>
    <polygon class="fil15" points="23,18 23,18 23,18 "/>
    <polygon class="fil10" points="16,8 16,8 16,8 "/>
    <polygon class="fil15" points="10,6 10,6 10,6 "/>
    <polygon class="fil15" points="25,24 25,24 25,24 "/>
    <polygon class="fil10" points="6,5 6,5 6,5 "/>
    <polygon class="fil10" points="24,20 24,20 24,20 "/>
    <polygon class="fil7" points="27,6 27,5 27,6 "/>
    <polygon class="fil5" points="4,6 4,6 "/>
    <polygon class="fil6" points="9,6 8,6 "/>
    <polygon class="fil6" points="21,6 21,6 "/>
    <polygon class="fil9" points="21,6 21,6 "/>
    <polygon class="fil5" points="27,6 27,6 "/>
    <polygon class="fil23" points="9,6 9,6 "/>
    <polygon class="fil5" points="21,6 21,6 "/>
    <polygon class="fil12" points="21,6 21,6 "/>
    <polygon class="fil3" points="27,6 27,6 "/>
    <polygon class="fil24" points="10,6 10,6 "/>
    <polygon class="fil22" points="4,6 4,6 "/>
    <polygon class="fil3" points="4,6 4,6 "/>
    <polygon class="fil6" points="11,6 11,6 "/>
    <polygon class="fil3" points="26,6 26,7 "/>
    <polygon class="fil9" points="4,7 4,7 "/>
    <polygon class="fil24" points="12,7 12,7 "/>
    <polygon class="fil7" points="26,7 26,7 "/>
    <polygon class="fil14" points="4,7 4,7 "/>
    <polygon class="fil20" points="26,7 26,7 "/>
    <polygon class="fil11" points="20,7 20,7 "/>
    <polygon class="fil22" points="26,7 26,7 "/>
    <polygon class="fil6" points="5,7 5,7 "/>
    <polygon class="fil16" points="20,7 20,7 "/>
    <polygon class="fil14" points="14,7 14,7 "/>
    <polygon class="fil8" points="20,7 20,7 "/>
    <polygon class="fil24" points="5,7 5,7 "/>
    <polygon class="fil24" points="20,7 20,7 "/>
    <polygon class="fil6" points="15,7 15,7 "/>
    <polygon class="fil6" points="20,7 20,7 "/>
    <polygon class="fil22" points="5,8 5,7 "/>
    <polygon class="fil4" points="20,7 19,8 "/>
    <polygon class="fil24" points="16,8 15,8 "/>
    <polygon class="fil5" points="19,8 19,8 "/>
    <polygon class="fil8" points="6,8 6,8 "/>
    <polygon class="fil20" points="19,8 19,8 "/>
    <polygon class="fil20" points="6,8 6,8 "/>
    <polygon class="fil21" points="6,8 6,8 "/>
    <polygon class="fil13" points="6,8 6,8 "/>
    <polygon class="fil16" points="6,8 6,8 "/>
    <polygon class="fil14" points="17,8 17,8 "/>
    <polygon class="fil12" points="6,8 6,8 "/>
    <polygon class="fil10" points="25,8 25,8 "/>
    <polygon class="fil6" points="18,8 18,8 "/>
    <polygon class="fil15" points="25,8 25,8 "/>
    <polygon class="fil5" points="7,9 7,8 "/>
    <polygon class="fil19" points="25,8 24,9 "/>
    <polygon class="fil7" points="7,9 7,9 "/>
    <polygon class="fil17" points="24,9 24,9 "/>
    <polygon class="fil3" points="7,9 7,9 "/>
    <polygon class="fil14" points="24,9 24,9 "/>
    <polygon class="fil9" points="24,9 24,9 "/>
    <polygon class="fil4" points="7,9 7,9 "/>
    <polygon class="fil5" points="24,9 24,9 "/>
    <polygon class="fil12" points="24,9 24,9 "/>
    <polygon class="fil14" points="8,9 8,9 "/>
    <polygon class="fil6" points="8,9 8,9 "/>
    <polygon class="fil24" points="8,10 8,10 "/>
    <polygon class="fil22" points="9,10 9,10 "/>
    <polygon class="fil10" points="23,10 23,10 "/>
    <polygon class="fil5" points="17,17 17,16 "/>
    <polygon class="fil15" points="11,17 11,17 "/>
    <polygon class="fil14" points="16,17 16,17 "/>
    <polygon class="fil10" points="17,17 17,17 "/>
    <polygon class="fil19" points="11,17 11,17 "/>
    <polygon class="fil5" points="16,17 16,17 "/>
    <polygon class="fil24" points="11,17 11,17 "/>
    <polygon class="fil12" points="16,17 16,17 "/>
    <polygon class="fil12" points="17,17 17,17 "/>
    <polygon class="fil19" points="16,16 16,16 "/>
    <polygon class="fil14" points="11,17 11,17 "/>
    <polygon class="fil16" points="17,17 17,17 "/>
    <polygon class="fil3" points="11,17 11,17 "/>
    <polygon class="fil12" points="11,17 11,17 "/>
    <polygon class="fil13" points="17,17 17,17 "/>
    <polygon class="fil15" points="16,16 16,16 "/>
    <polygon class="fil20" points="11,17 10,17 "/>
    <polygon class="fil21" points="18,17 17,17 "/>
    <polygon class="fil24" points="23,17 23,17 "/>
    <polygon class="fil24" points="4,17 4,17 "/>
    <polygon class="fil3" points="17,16 17,16 "/>
    <polygon class="fil7" points="4,17 4,18 "/>
    <polygon class="fil12" points="12,16 12,16 "/>
    <polygon class="fil7" points="15,17 15,18 "/>
    <polygon class="fil4" points="6,18 6,18 "/>
    <polygon class="fil15" points="15,18 15,18 "/>
    <polygon class="fil3" points="12,16 12,16 "/>
    <polygon class="fil14" points="12,15 12,16 "/>
    <polygon class="fil23" points="12,15 12,15 "/>
    <polygon class="fil14" points="23,15 23,15 "/>
    <polygon class="fil8" points="15,18 15,18 "/>
    <polygon class="fil12" points="3,18 3,18 "/>
    <polygon class="fil3" points="8,18 7,18 "/>
    <polygon class="fil23" points="15,18 15,18 "/>
    <polygon class="fil9" points="3,18 3,18 "/>
    <polygon class="fil8" points="12,15 12,15 "/>
    <polygon class="fil15" points="12,15 12,15 "/>
    <polygon class="fil14" points="15,18 14,18 "/>
    <polygon class="fil22" points="18,18 18,18 "/>
    <polygon class="fil8" points="3,18 3,18 "/>
    <polygon class="fil11" points="13,15 12,15 "/>
    <polygon class="fil10" points="10,18 10,18 "/>
    <polygon class="fil3" points="14,18 14,18 "/>
    <polygon class="fil6" points="23,18 23,18 "/>
    <polygon class="fil10" points="3,18 3,18 "/>
    <polygon class="fil24" points="10,18 9,18 "/>
    <polygon class="fil23" points="22,15 22,14 "/>
    <polygon class="fil12" points="14,18 14,18 "/>
    <polygon class="fil14" points="27,3 26,3 "/>
    <polygon class="fil23" points="18,18 18,18 "/>
    <polygon class="fil13" points="13,14 13,14 "/>
    <polygon class="fil9" points="27,3 27,3 "/>
    <polygon class="fil18" points="24,3 24,3 "/>
    <polygon class="fil8" points="27,3 27,3 "/>
    <polygon class="fil5" points="13,14 13,14 "/>
    <polygon class="fil23" points="18,19 18,19 "/>
    <polygon class="fil6" points="3,19 3,19 "/>
    <polygon class="fil7" points="14,19 13,19 "/>
    <polygon class="fil14" points="24,19 24,19 "/>
    <polygon class="fil16" points="13,19 13,19 "/>
    <polygon class="fil14" points="19,19 19,19 "/>
    <polygon class="fil3" points="4,19 4,19 "/>
    <polygon class="fil8" points="13,19 13,19 "/>
    <polygon class="fil16" points="4,19 4,19 "/>
    <polygon class="fil24" points="13,19 13,19 "/>
    <polygon class="fil4" points="24,3 24,3 "/>
    <polygon class="fil20" points="4,19 4,19 "/>
    <polygon class="fil9" points="13,19 13,19 "/>
    <polygon class="fil9" points="19,19 19,19 "/>
    <polygon class="fil3" points="27,3 27,3 "/>
    <polygon class="fil9" points="13,14 13,14 "/>
    <polygon class="fil5" points="13,19 13,19 "/>
    <polygon class="fil13" points="13,19 13,20 "/>
    <polygon class="fil9" points="5,20 4,19 "/>
    <polygon class="fil4" points="19,20 19,19 "/>
    <polygon class="fil23" points="14,14 13,14 "/>
    <polygon class="fil8" points="14,14 14,14 "/>
    <polygon class="fil4" points="22,14 22,14 "/>
    <polygon class="fil12" points="24,3 24,3 "/>
    <polygon class="fil5" points="5,20 5,20 "/>
    <polygon class="fil16" points="14,14 14,14 "/>
    <polygon class="fil5" points="19,20 19,20 "/>
    <polygon class="fil24" points="16,16 16,17 "/>
    <polygon class="fil11" points="14,14 14,14 "/>
    <polygon class="fil4" points="27,4 27,3 "/>
    <polygon class="fil24" points="5,20 5,20 "/>
    <polygon class="fil7" points="12,20 12,20 "/>
    <polygon class="fil16" points="12,20 12,20 "/>
    <polygon class="fil5" points="19,20 19,20 "/>
    <polygon class="fil18" points="6,20 6,20 "/>
    <polygon class="fil14" points="24,4 23,4 "/>
    <polygon class="fil15" points="20,20 19,20 "/>
    <polygon class="fil5" points="14,13 14,13 "/>
    <polygon class="fil5" points="23,4 23,4 "/>
    <polygon class="fil19" points="23,4 23,4 "/>
    <polygon class="fil12" points="6,21 6,20 "/>
    <polygon class="fil12" points="20,21 20,20 "/>
    <polygon class="fil12" points="14,13 13,13 "/>
    <polygon class="fil12" points="23,4 23,4 "/>
    <polygon class="fil21" points="20,21 20,21 "/>
    <polygon class="fil15" points="13,13 13,13 "/>
    <polygon class="fil24" points="24,21 24,21 "/>
    <polygon class="fil6" points="7,21 6,21 "/>
    <polygon class="fil13" points="13,13 13,13 "/>
    <polygon class="fil19" points="20,21 20,21 "/>
    <polygon class="fil3" points="7,21 7,21 "/>
    <polygon class="fil21" points="13,13 13,13 "/>
    <polygon class="fil9" points="22,13 22,13 "/>
    <polygon class="fil20" points="23,4 22,4 "/>
    <polygon class="fil20" points="7,21 7,21 "/>
    <polygon class="fil8" points="20,21 20,21 "/>
    <polygon class="fil8" points="12,21 12,21 "/>
    <polygon class="fil15" points="7,21 7,22 "/>
    <polygon class="fil6" points="24,22 24,21 "/>
    <polygon class="fil14" points="7,22 7,22 "/>
    <polygon class="fil22" points="20,22 20,22 "/>
    <polygon class="fil20" points="13,13 13,13 "/>
    <polygon class="fil24" points="12,22 12,22 "/>
    <polygon class="fil23" points="21,22 21,22 "/>
    <polygon class="fil12" points="5,5 5,5 "/>
    <polygon class="fil9" points="7,22 7,22 "/>
    <polygon class="fil6" points="21,22 21,22 "/>
    <polygon class="fil9" points="25,22 24,22 "/>
    <polygon class="fil5" points="7,22 6,22 "/>
    <polygon class="fil8" points="13,13 13,12 "/>
    <polygon class="fil14" points="6,23 6,23 "/>
    <polygon class="fil9" points="21,23 21,23 "/>
    <polygon class="fil24" points="5,5 5,5 "/>
    <polygon class="fil24" points="6,5 6,5 "/>
    <polygon class="fil11" points="5,5 5,5 "/>
    <polygon class="fil17" points="12,12 12,12 "/>
    <polygon class="fil15" points="9,23 8,23 "/>
    <polygon class="fil24" points="12,12 12,12 "/>
    <polygon class="fil23" points="8,23 8,23 "/>
    <polygon class="fil16" points="9,23 9,23 "/>
    <polygon class="fil4" points="21,23 21,23 "/>
    <polygon class="fil20" points="8,23 8,23 "/>
    <polygon class="fil6" points="22,12 22,12 "/>
    <polygon class="fil24" points="6,23 6,23 "/>
    <polygon class="fil5" points="9,23 9,23 "/>
    <polygon class="fil6" points="12,12 12,12 "/>
    <polygon class="fil5" points="5,5 5,5 "/>
    <polygon class="fil14" points="8,23 8,23 "/>
    <polygon class="fil18" points="22,23 21,23 "/>
    <polygon class="fil14" points="11,12 11,12 "/>
    <polygon class="fil11" points="22,5 22,5 "/>
    <polygon class="fil11" points="22,23 22,23 "/>
    <polygon class="fil24" points="5,5 4,5 "/>
    <polygon class="fil12" points="8,23 8,24 "/>
    <polygon class="fil6" points="9,24 9,23 "/>
    <polygon class="fil15" points="22,5 22,5 "/>
    <polygon class="fil9" points="7,24 7,24 "/>
    <polygon class="fil5" points="22,24 22,24 "/>
    <polygon class="fil9" points="11,11 11,11 "/>
    <polygon class="fil15" points="22,24 22,24 "/>
    <polygon class="fil7" points="4,5 4,6 "/>
    <polygon class="fil6" points="7,24 7,24 "/>
    <polygon class="fil3" points="11,11 11,11 "/>
    <polygon class="fil22" points="4,6 4,6 "/>
    <polygon class="fil18" points="11,11 10,11 "/>
    <polygon class="fil3" points="12,24 12,24 "/>
    <polygon class="fil12" points="22,24 22,24 "/>
    <polygon class="fil9" points="8,6 8,5 "/>
    <polygon class="fil12" points="10,24 9,24 "/>
    <polygon class="fil16" points="22,24 22,24 "/>
    <polygon class="fil11" points="10,11 10,11 "/>
    <polygon class="fil13" points="22,24 22,24 "/>
    <polygon class="fil23" points="25,24 25,24 "/>
    <polygon class="fil18" points="10,24 10,24 "/>
    <polygon class="fil19" points="22,24 22,24 "/>
    <polygon class="fil5" points="10,11 10,11 "/>
    <polygon class="fil20" points="22,11 22,11 "/>
    <polygon class="fil15" points="10,11 10,11 "/>
    <polygon class="fil24" points="10,25 10,25 "/>
    <polygon class="fil12" points="22,11 22,11 "/>
    <polygon class="fil19" points="22,5 21,6 "/>
    <polygon class="fil13" points="25,25 25,25 "/>
    <polygon class="fil12" points="10,11 10,11 "/>
    <polygon class="fil22" points="23,25 23,25 "/>
    <polygon class="fil6" points="25,25 25,25 "/>
    <polygon class="fil3" points="23,10 22,11 "/>
    <polygon class="fil10" points="25,25 25,25 "/>
    <polygon class="fil5" points="10,25 10,25 "/>
    <polygon class="fil16" points="10,11 10,10 "/>
    <polygon class="fil14" points="23,10 23,10 "/>
    <polygon class="fil24" points="23,25 23,25 "/>
    <polygon class="fil12" points="25,25 25,25 "/>
    <polygon class="fil14" points="11,26 10,25 "/>
    <polygon class="fil23" points="25,25 25,26 "/>
    <polygon class="fil6" points="23,26 23,26 "/>
    <polygon class="fil10" points="25,26 24,26 "/>
    <polygon class="fil20" points="10,10 9,10 "/>
    <polygon class="fil24" points="23,10 23,10 "/>
    <polygon class="fil14" points="23,26 23,26 "/>
    <polygon class="fil12" points="24,26 24,26 "/>
    <polygon class="fil13" points="11,26 11,26 "/>
    <polygon class="fil24" points="24,26 24,26 "/>
    <polygon class="fil19" points="9,10 9,10 "/>
    <polygon class="fil23" points="13,26 13,26 "/>
    <polygon class="fil7" points="24,26 24,26 "/>
    <polygon class="fil11" points="13,26 12,26 "/>
    <polygon class="fil9" points="24,26 24,26 "/>
    <polygon class="fil4" points="11,26 11,26 "/>
    <polygon class="fil22" points="24,26 24,26 "/>
    <polygon class="fil24" points="11,27 11,27 "/>
    <polygon class="fil12" points="12,27 12,27 "/>
    <polygon class="fil9" points="12,27 12,27 "/>
    <polygon class="fil20" points="11,27 11,27 "/>
    <polygon class="fil8" points="12,27 12,27 "/>
    <polygon class="fil17" points="23,10 23,10 "/>
    <polygon class="fil11" points="12,27 12,27 "/>
    <polygon class="fil21" points="23,10 23,10 "/>
    <polygon class="fil8" points="21,6 21,6 "/>
    <polygon class="fil20" points="20,21 20,21 "/>
   </g>
  </g>
 </g>
</svg>
