<?xml version="1.0" encoding="UTF-8"?>
<!DOCTYPE svg PUBLIC "-//W3C//DTD SVG 1.1//EN" "http://www.w3.org/Graphics/SVG/1.1/DTD/svg11.dtd">
<!-- Creator: CorelDRAW X7 -->
<svg xmlns="http://www.w3.org/2000/svg" xml:space="preserve" width="30px" height="30px" version="1.1" style="shape-rendering:geometricPrecision; text-rendering:geometricPrecision; image-rendering:optimizeQuality; fill-rule:evenodd; clip-rule:evenodd"
viewBox="0 0 30 30"
 xmlns:xlink="http://www.w3.org/1999/xlink">
 <defs>
  <style type="text/css">
   <![CDATA[
    .fil0 {fill:none}
    .fil2 {fill:#FEFEFE}
    .fil5 {fill:#0B3F59}
    .fil3 {fill:#0F465F}
    .fil1 {fill:#3D96A5}
    .fil8 {fill:#4FB1AB}
    .fil9 {fill:gainsboro}
    .fil6 {fill:#FAFAF9}
    .fil4 {fill:url(#id0)}
    .fil7 {fill:url(#id1)}
   ]]>
  </style>
  <linearGradient id="id0" gradientUnits="userSpaceOnUse" x1="2.92228" y1="24.2807" x2="27.686" y2="24.2807">
   <stop offset="0" style="stop-opacity:1; stop-color:#0B3F59"/>
   <stop offset="1" style="stop-opacity:1; stop-color:#419DAB"/>
  </linearGradient>
  <linearGradient id="id1" gradientUnits="userSpaceOnUse" xlink:href="#id0" x1="17.8573" y1="9.87243" x2="20.8327" y2="9.87243">
  </linearGradient>
 </defs>
 <g id="Layer_x0020_1">
  <metadata id="CorelCorpID_0Corel-Layer"/>
  <g id="_2247322012880">
   <rect class="fil0" width="30" height="30"/>
   <path class="fil1" d="M5 8c0,0 0,0 0,0 0,0 0,0 0,0 0,0 0,0 0,0zm13 2c1,-1 2,-1 3,0 -1,0 0,-1 -3,0 0,1 0,1 0,1 -1,1 -2,2 0,4 0,-1 0,-2 1,-3 0,-1 2,-2 2,-2 1,1 0,3 0,4 0,0 -1,2 -1,2 0,1 -1,2 -1,3l-1 2c-1,0 -2,-1 -3,0 -1,-1 -1,-1 -1,-2 -2,-2 -5,-10 -4,-13 0,0 1,1 2,2 1,1 2,2 2,4 2,-1 1,-6 -3,-6 4,-1 4,1 6,2 0,-2 -1,-2 -2,-3 0,0 0,0 0,0 -1,-1 0,-1 -2,-1 -2,0 -2,1 -3,1 1,-1 2,-2 5,-2 -1,-1 -1,-1 -2,-1 0,0 -2,0 -3,1 0,0 0,1 -1,1 0,-1 0,-2 -1,-2 -1,0 -3,-1 -4,1 1,0 2,0 3,1 1,0 1,0 1,0 1,1 1,1 1,1 -1,-1 -2,-1 -4,-1 -1,0 -1,0 0,0 -2,1 -3,2 -3,4 1,-1 1,-2 3,-2 2,-1 2,0 4,0 -2,0 -3,0 -4,1 -1,1 0,1 0,1 -2,2 -1,3 0,4 0,-1 0,-1 1,-2 0,-2 1,-3 3,-4l0 1c0,3 0,4 1,6 0,1 1,3 1,5l1 3c-1,0 -3,1 -3,2 -1,0 -1,0 -2,1 -1,0 -1,0 -1,1 1,0 2,-1 5,-1 5,0 6,2 15,0 0,0 0,0 0,0 0,0 0,0 -1,0 0,0 0,0 0,-1 -1,0 -4,-2 -5,-2l1 -3c0,-1 1,-3 1,-3 0,-1 0,-2 0,-3 0,0 0,-1 0,-2 1,0 2,1 2,2 1,0 1,2 1,3l0 0c1,-2 1,-1 1,-3l0 0c0,0 0,0 0,0 0,-1 0,-1 0,-1 -1,0 -1,-1 -2,-1l0 0c2,0 3,1 4,2 0,-2 -1,-3 -2,-3 0,-1 0,0 0,-1 -1,0 -2,0 -3,1l0 0c0,0 0,0 0,-1 0,0 0,0 0,0 1,0 2,-1 3,0 -1,-2 -1,-2 -3,-1 0,0 0,0 0,0 -1,1 -1,1 -1,2 0,-1 -1,-2 -2,-2 -1,-1 -1,-1 -3,0 1,0 2,0 3,1 0,0 1,1 1,1 -1,-1 -2,-1 -4,-1 0,1 -2,1 -1,3 0,0 1,-1 2,-1z"/>
   <path class="fil2" d="M3 24c8,-1 8,2 15,3 8,2 11,-4 9,-7 -2,8 -14,2 -18,2 -2,0 -5,1 -6,2z"/>
   <path class="fil3" d="M13 4c2,0 1,0 2,1 0,0 0,0 0,0 1,1 2,1 2,3 -2,-1 -2,-3 -6,-2 4,0 5,5 3,6 0,-2 -1,-3 -2,-4 -1,-1 -2,-2 -2,-2 -1,3 2,11 4,13 2,0 3,0 5,0 0,-1 1,-2 1,-3 0,0 1,-2 1,-2 0,-1 1,-3 0,-4 0,0 -2,1 -2,2 -1,1 -1,2 -1,3 -2,-2 -1,-3 0,-4 0,0 0,0 0,-1 0,0 0,0 0,0l0 0c-1,0 -2,1 -2,1 -1,-2 1,-2 1,-3 2,0 3,0 4,1 0,0 -1,-1 -1,-1 -1,-1 -2,-1 -3,-1 2,-1 2,-1 3,0 1,0 2,1 2,2 0,-1 0,-1 1,-2 -1,-1 -3,-3 -4,-3 -2,-1 -5,-1 -6,0z"/>
   <path class="fil4" d="M3 25c8,-1 8,2 15,3 8,2 11,-4 9,-8 -1,8 -14,3 -18,3 -2,0 -5,1 -6,2z"/>
   <path class="fil5" d="M11 18c0,-2 -1,-4 -1,-5 -1,-2 -1,-3 -1,-6 -1,2 -2,4 -1,6 1,2 2,4 3,5z"/>
   <path class="fil5" d="M22 15c0,0 -1,2 -1,3 1,-1 3,-4 3,-6 0,-1 -1,-2 -2,-2 0,1 0,2 0,2 0,1 0,2 0,3z"/>
   <path class="fil6" d="M14 19c0,1 0,1 1,2 1,-1 2,0 3,0l1 -2c-2,0 -3,0 -5,0z"/>
   <path class="fil7" d="M18 10l0 0c0,0 0,0 0,0 3,-1 2,0 3,0 -1,-1 -2,-1 -3,0z"/>
   <path class="fil8" d="M23 9l0 -1c0,0 0,0 0,0 0,1 0,1 0,1l0 0z"/>
   <path class="fil9" d="M5 8c0,0 0,0 0,0 0,0 0,0 0,0 0,0 0,0 0,0z"/>
  </g>
 </g>
</svg>
