<?xml version="1.0" encoding="UTF-8"?>
<!DOCTYPE svg PUBLIC "-//W3C//DTD SVG 1.1//EN" "http://www.w3.org/Graphics/SVG/1.1/DTD/svg11.dtd">
<!-- Creator: CorelDRAW X7 -->
<svg xmlns="http://www.w3.org/2000/svg" xml:space="preserve" width="30px" height="30px" version="1.1" style="shape-rendering:geometricPrecision; text-rendering:geometricPrecision; image-rendering:optimizeQuality; fill-rule:evenodd; clip-rule:evenodd"
viewBox="0 0 30 30"
 xmlns:xlink="http://www.w3.org/1999/xlink">
 <defs>
  <style type="text/css">
   <![CDATA[
    .fil0 {fill:none}
    .fil2 {fill:#FEFEFE}
    .fil1 {fill:#805F1B}
    .fil5 {fill:#727272}
    .fil4 {fill:#757575}
    .fil3 {fill:#C4C4C4}
   ]]>
  </style>
 </defs>
 <g id="Layer_x0020_1">
  <metadata id="CorelCorpID_0Corel-Layer"/>
  <g id="_2269980935408">
   <rect class="fil0" width="30" height="30"/>
   <g>
    <path class="fil1" d="M14 9c1,0 3,0 4,0 0,0 0,0 1,1l1 1c0,1 1,1 1,2l3 4c0,0 1,0 1,0 0,1 0,1 0,1 -1,1 -1,1 -2,1 -4,1 -10,1 -14,0 -1,0 -2,0 -3,-1 -1,0 -1,0 0,-1 0,0 0,0 0,0l5 -7c1,0 1,-1 1,-1 1,0 1,0 2,0zm-13 3l0 0c0,0 1,1 1,1 0,1 1,6 1,6 0,1 1,1 2,1l0 2c0,0 -2,0 -2,0 0,0 0,0 0,0 0,0 0,0 0,0 0,0 0,0 0,0 0,1 0,1 0,1 0,0 1,0 1,-1l1 1c-1,0 -1,0 -1,0 0,0 -1,0 -1,0 0,1 0,1 0,1 0,0 1,0 1,0 0,0 1,-1 1,-1 0,0 2,1 2,1 0,0 0,0 0,0 0,0 1,0 1,0 0,0 0,0 0,0 0,-1 0,-1 -1,-1 0,0 0,0 0,0 0,0 -1,0 -1,0 0,0 0,0 0,0 0,0 0,0 0,0 0,0 1,0 1,0 0,-1 0,-1 0,-1 1,1 1,0 1,0 0,0 0,0 0,0 0,-1 -1,0 -2,0l0 -2c0,0 0,1 1,1 0,0 0,0 0,0 1,0 1,0 2,0 0,0 0,1 0,1 0,0 1,0 1,0 0,1 0,1 0,3l10 0c0,-1 0,-2 1,-3 0,-1 0,0 2,-1 0,0 1,0 1,0l0 1c0,0 -1,0 -2,0 0,0 0,0 0,0 0,0 0,0 0,0 0,0 0,0 0,0 0,1 1,1 1,0 0,0 0,0 0,0l1 1c0,0 0,0 0,0l0 0c-1,0 -1,0 -1,0 -1,0 -1,0 -1,1 0,0 0,0 0,0 0,0 0,0 0,0 0,0 1,0 1,0 0,0 0,0 0,0 0,0 1,-1 1,-1 1,0 2,1 2,1l0 0c0,0 1,0 1,0 0,0 0,0 0,-1 0,0 -1,0 -2,0l1 -1c0,0 1,1 1,0 0,0 0,0 0,0 0,-1 -1,0 -2,0l0 -2c1,0 2,0 2,0 0,-1 0,-1 0,-2l1 -3c0,-1 0,-2 1,-3 0,0 0,-1 -1,-1 -1,-1 -2,-1 -3,-1 0,0 -1,0 -1,1 -1,0 -1,1 -1,2 0,0 0,1 0,1 -1,0 0,-1 0,-1 0,-1 0,-2 1,-3 0,0 0,0 1,0 0,0 0,-1 0,-1 0,0 0,0 -1,0 0,0 -1,0 -2,0 0,0 -1,0 -1,0 0,0 0,1 0,1 0,0 0,0 0,1 0,0 0,0 -1,0l0 0c0,0 0,0 0,0 1,-1 1,-2 1,-2 0,-1 1,-1 1,-1 0,0 0,-1 0,-1 -1,0 -1,0 -2,0 -1,0 -1,0 -1,0 0,1 0,1 -1,2 0,0 0,-1 -1,-1 0,0 0,-1 0,-1 0,-1 0,-1 0,-1 -1,-1 -3,-1 -4,0 0,0 0,0 0,1 0,0 0,1 0,1 -1,0 -1,1 -1,1 0,-1 0,-1 -1,-2 0,0 0,0 -1,0 -1,0 -1,0 -2,0 0,0 0,1 0,1 0,0 1,0 1,0 0,1 0,1 0,1 0,0 1,1 1,2l0 0c0,0 0,0 0,0 -1,-1 -1,-1 -1,-2 0,0 -1,0 -1,0 -1,0 -2,0 -2,0 -1,0 -1,1 -1,1 1,0 1,0 1,0 1,1 1,1 1,1 0,1 0,2 0,2 1,0 1,1 0,1 0,0 0,-1 0,-1 0,-1 0,-3 -2,-3 0,0 -1,0 -2,1 -1,0 -2,0 -2,1z"/>
    <path class="fil2" d="M14 9c-1,0 -1,0 -2,0 0,0 0,1 -1,1l-5 7c0,0 0,0 0,0 -1,1 -1,1 0,1 1,1 2,1 3,1 4,1 10,1 14,0 1,0 1,0 2,-1 0,0 0,0 0,-1 0,0 -1,0 -1,0l-3 -4c0,-1 -1,-1 -1,-2l-1 -1c-1,-1 -1,-1 -1,-1 -1,0 -3,0 -4,0z"/>
    <path class="fil3" d="M1 12l0 0c0,0 0,0 0,0 0,0 0,0 0,0z"/>
    <path class="fil4" d="M24 23l0 0c0,0 0,0 0,0 0,0 0,0 0,0z"/>
    <path class="fil5" d="M23 22c0,0 0,0 0,0 0,0 0,0 0,0z"/>
   </g>
  </g>
 </g>
</svg>
