<?xml version="1.0" encoding="UTF-8"?>
<!DOCTYPE svg PUBLIC "-//W3C//DTD SVG 1.1//EN" "http://www.w3.org/Graphics/SVG/1.1/DTD/svg11.dtd">
<!-- Creator: CorelDRAW X7 -->
<svg xmlns="http://www.w3.org/2000/svg" xml:space="preserve" width="30px" height="30px" version="1.1" style="shape-rendering:geometricPrecision; text-rendering:geometricPrecision; image-rendering:optimizeQuality; fill-rule:evenodd; clip-rule:evenodd"
viewBox="0 0 30 30"
 xmlns:xlink="http://www.w3.org/1999/xlink">
 <defs>
  <style type="text/css">
   <![CDATA[
    .fil0 {fill:none}
    .fil1 {fill:#805F1B}
   ]]>
  </style>
 </defs>
 <g id="Layer_x0020_1">
  <metadata id="CorelCorpID_0Corel-Layer"/>
  <g id="_2270308782896">
   <rect class="fil0" width="30" height="30"/>
   <path class="fil1" d="M23 21l0 0 0 0c0,0 0,0 0,0 1,1 1,0 2,0 0,0 0,-2 0,-2 0,0 0,0 1,0 1,0 0,-1 0,-3l2 0 0 0c0,0 1,0 1,0l0 -2 -1 0 0 0 -2 0c0,-2 1,-3 0,-3 -1,0 -1,0 -1,0 0,-1 0,-2 0,-2 -1,0 -1,-1 -2,0 0,0 0,0 0,0 -1,0 0,0 -1,0 0,-1 -2,-1 -2,1 0,1 0,3 0,4l-10 0c0,-1 0,-3 0,-4 0,-1 -1,-1 -1,-1 -1,-1 -1,0 -2,0 0,0 0,0 0,0 -1,-1 -1,0 -2,0 0,0 0,1 0,2 0,0 -1,0 -1,0 0,1 0,2 0,3l-2 0 0 0c0,0 -1,0 -1,0l0 2c0,0 1,0 1,0l0 0 2 0c0,1 0,2 0,3 0,0 1,0 1,0 0,1 0,2 0,2 1,0 1,1 2,0 0,0 0,0 0,0 1,0 0,0 1,0 0,1 1,1 1,0 1,0 1,0 1,-1 0,-1 0,-3 0,-4l10 0c0,1 0,3 0,4 0,1 1,1 1,1 1,1 1,0 2,0z"/>
  </g>
 </g>
</svg>
