<?xml version="1.0" encoding="UTF-8"?>
<!DOCTYPE svg PUBLIC "-//W3C//DTD SVG 1.1//EN" "http://www.w3.org/Graphics/SVG/1.1/DTD/svg11.dtd">
<!-- Creator: CorelDRAW X7 -->
<svg xmlns="http://www.w3.org/2000/svg" xml:space="preserve" width="30px" height="30px" version="1.1" style="shape-rendering:geometricPrecision; text-rendering:geometricPrecision; image-rendering:optimizeQuality; fill-rule:evenodd; clip-rule:evenodd"
viewBox="0 0 30 30"
 xmlns:xlink="http://www.w3.org/1999/xlink">
 <defs>
  <style type="text/css">
   <![CDATA[
    .fil0 {fill:none}
    .fil3 {fill:#FEFEFE}
    .fil1 {fill:#805F1B}
    .fil2 {fill:#9D7526}
   ]]>
  </style>
 </defs>
 <g id="Layer_x0020_1">
  <metadata id="CorelCorpID_0Corel-Layer"/>
  <g id="_2270139619904">
   <rect class="fil0" width="30" height="30"/>
   <g>
    <path class="fil1" d="M29 14l-6 3c-2,0 -2,1 -4,2 0,0 0,0 -1,0 -1,-1 -1,-1 -2,-1 -2,-1 -4,-2 -7,-2 -2,-1 -4,-2 -6,-3 -1,-1 0,-2 1,-3l7 -1c2,-1 3,-1 3,-1l0 -4c-1,0 -9,2 -12,2 -1,1 -1,0 -1,2 0,2 0,5 0,8 0,1 0,3 1,4 1,0 2,-1 2,-2l3 2c1,0 2,0 3,1l5 2c0,0 1,0 1,0 0,2 0,3 2,3 2,0 2,-1 2,-3 2,-1 4,-2 5,-3 1,1 3,1 4,-1 0,-1 0,-4 0,-5z"/>
    <path class="fil2" d="M29 13c0,-1 0,-2 -2,-2 -1,0 -2,0 -3,-1 -1,0 -5,-1 -6,-1 -2,0 -8,2 -10,3 -1,0 -2,1 -2,2 1,1 4,2 6,2 2,1 4,1 6,2 1,1 2,0 3,-1 1,0 7,-4 8,-4z"/>
    <path class="fil3" d="M29 14l0 -1c-1,0 -7,4 -8,4 -1,1 -2,2 -3,1 -2,-1 -4,-1 -6,-2 -2,0 -5,-1 -6,-2 0,-1 1,-2 2,-2 2,-1 8,-3 10,-3 0,0 0,0 0,0 -1,0 -3,0 -4,-1 0,0 -1,0 -3,1l-7 1c-1,1 -2,2 -1,3 2,1 4,2 6,3 3,0 5,1 7,2 1,0 1,0 2,1 1,0 1,0 1,0 2,-1 2,-2 4,-2l6 -3z"/>
   </g>
  </g>
 </g>
</svg>
