<?xml version="1.0" encoding="UTF-8"?>
<!DOCTYPE svg PUBLIC "-//W3C//DTD SVG 1.1//EN" "http://www.w3.org/Graphics/SVG/1.1/DTD/svg11.dtd">
<!-- Creator: CorelDRAW X7 -->
<svg xmlns="http://www.w3.org/2000/svg" xml:space="preserve" width="30px" height="30px" version="1.1" style="shape-rendering:geometricPrecision; text-rendering:geometricPrecision; image-rendering:optimizeQuality; fill-rule:evenodd; clip-rule:evenodd"
viewBox="0 0 30 30"
 xmlns:xlink="http://www.w3.org/1999/xlink">
 <defs>
  <style type="text/css">
   <![CDATA[
    .fil0 {fill:none}
    .fil5 {fill:#FEFEFE}
    .fil1 {fill:#0B3F59}
    .fil2 {fill:url(#id0)}
    .fil4 {fill:url(#id1)}
    .fil3 {fill:url(#id2)}
    .fil6 {fill:url(#id3)}
    .fil7 {fill:url(#id4)}
   ]]>
  </style>
  <linearGradient id="id0" gradientUnits="userSpaceOnUse" x1="15.8386" y1="23.9303" x2="24.1323" y2="23.9303">
   <stop offset="0" style="stop-opacity:1; stop-color:#0B3F59"/>
   <stop offset="1" style="stop-opacity:1; stop-color:#419DAB"/>
  </linearGradient>
  <linearGradient id="id1" gradientUnits="userSpaceOnUse" xlink:href="#id0" x1="0.924803" y1="25.8248" x2="9.76772" y2="25.8248">
  </linearGradient>
  <linearGradient id="id2" gradientUnits="userSpaceOnUse" xlink:href="#id0" x1="6.69567" y1="24.8681" x2="17.335" y2="24.8681">
  </linearGradient>
  <linearGradient id="id3" gradientUnits="userSpaceOnUse" xlink:href="#id0" x1="9.21496" y1="27.274" x2="15.0213" y2="27.274">
  </linearGradient>
  <linearGradient id="id4" gradientUnits="userSpaceOnUse" xlink:href="#id0" x1="20.9492" y1="21.6874" x2="29.0752" y2="21.6874">
  </linearGradient>
 </defs>
 <g id="Layer_x0020_1">
  <metadata id="CorelCorpID_0Corel-Layer"/>
  <g id="_1598464902944">
   <rect class="fil0" width="29.9976" height="29.9976"/>
   <path class="fil1" d="M8 13c0,-1 1,-4 2,-5 0,0 1,-1 1,-1 0,0 0,1 0,1 0,2 1,3 1,4 -1,0 -2,0 -3,0 0,1 0,1 -1,1 0,0 0,0 0,0zm14 -10l0 0c0,0 0,0 -1,0 0,1 -1,1 -1,2 0,0 0,0 -1,0 -1,-1 -3,-1 -5,0 0,0 0,0 -1,0 0,0 0,0 0,0 0,0 0,0 1,0 0,-1 0,-1 1,-1 1,0 3,-1 4,-1 0,0 1,0 1,0 1,0 1,0 2,0zm0 1c0,0 0,0 0,0 0,0 0,0 0,0 0,-1 0,0 0,-1 0,0 1,0 1,0 0,0 0,-1 1,-1 -1,0 -1,0 -1,0l0 0 -1 0 0 0c-1,0 -1,0 -1,0 0,0 -1,0 -2,0 0,0 -1,0 -2,0 -1,0 -2,1 -3,1 0,0 -1,0 -1,1 0,0 -1,0 -1,0 -1,0 -1,-1 -1,-1l-2 1c0,0 0,0 0,0 0,1 0,1 0,1 0,1 -1,2 -2,3 0,0 0,0 0,0 0,0 0,0 0,0l-2 2c-1,2 -2,3 -2,6 1,-1 1,-1 2,-1 2,-1 2,0 3,0 0,0 0,0 0,0 0,0 0,-1 1,-1 1,-2 2,-1 4,-1 0,0 0,-1 1,-2 0,0 0,1 0,1 1,0 1,1 1,1l2 3c1,1 2,3 2,4 0,0 0,1 1,2 0,0 0,-1 0,-2 0,0 0,-1 -1,-2l-3 -5c0,0 0,-1 -1,-1 0,0 0,-1 0,-1l0 -1c0,1 1,1 1,2l3 5c1,1 1,1 1,1l1 1c0,0 0,0 0,0 0,1 0,1 0,1 0,-1 0,-1 0,-1 0,0 1,0 1,0 1,0 3,0 4,0 0,0 -1,-1 -1,-1 0,0 0,0 0,0 -1,0 -3,0 -4,0 0,-1 -1,-1 -1,-2l-1 -2c-1,0 -3,-4 -3,-4 0,0 1,0 2,0 0,-1 0,-2 1,-3 1,0 2,0 2,-1 1,0 0,-1 0,-1 0,-1 1,-1 1,-1zm-10 7c0,-1 0,-3 0,-5 0,0 3,2 4,2 0,0 0,1 0,1 1,0 0,0 0,0l0 0c-1,0 -1,0 -2,1 -1,0 -1,1 -2,2l0 -1zm-5 3c0,-1 -1,-1 -1,-1 -1,1 -1,1 -2,1 1,-1 1,-2 1,-2 1,-1 1,-2 2,-2 1,-2 1,-2 2,-3 1,0 1,0 1,0l-1 1c-1,2 -2,4 -2,6zm5 -8c1,0 3,-1 4,-1 1,0 3,0 4,1 0,0 -1,0 -2,1 -1,0 -1,0 -1,1 0,0 0,0 0,0 -1,-1 -2,-1 -2,-1 -1,0 -3,-1 -3,-1zm-2 -2c0,0 0,0 0,0 0,0 0,0 0,0 0,0 0,0 0,0 1,0 1,1 1,1l0 1c-1,-1 -1,-1 -1,-2z"/>
   <path class="fil2" d="M20 21l-1 2c-1,1 -2,3 -3,4 0,0 0,0 0,1 1,-1 3,-1 4,-1l4 0c0,0 0,0 0,-1 0,0 0,0 0,0l0 0c0,-1 -3,-6 -3,-6l-1 0c0,0 0,1 0,1z"/>
   <path class="fil3" d="M15 23c0,-1 0,-1 -1,0 -1,0 -1,0 -2,0 -1,0 -3,0 -5,0 0,0 0,0 0,0 0,0 0,0 0,0 0,0 1,1 1,1l6 3c0,0 1,0 1,0l2 -2c0,-1 0,-1 0,-1l-2 -1z"/>
   <path class="fil4" d="M1 28c0,0 7,-1 7,-1 0,0 1,-1 1,-1 0,0 1,0 1,0l-4 -2 -5 4z"/>
   <path class="fil5" d="M12 12c1,-1 1,-2 2,-2 1,-1 1,-1 2,-1l0 0c0,0 1,0 0,0 0,0 0,-1 0,-1 -1,0 -4,-2 -4,-2 0,2 0,4 0,5l0 1z"/>
   <path class="fil5" d="M8 13c0,0 0,0 0,0 1,0 1,0 1,-1 1,0 2,0 3,0 0,-1 -1,-2 -1,-4 0,0 0,-1 0,-1 0,0 -1,1 -1,1 -1,1 -2,4 -2,5z"/>
   <path class="fil5" d="M12 6c0,0 2,1 3,1 0,0 1,0 2,1 0,0 0,0 0,0 0,-1 0,-1 1,-1 1,-1 2,-1 2,-1 -1,-1 -3,-1 -4,-1 -1,0 -3,1 -4,1z"/>
   <path class="fil5" d="M21 3c1,0 1,0 1,0l0 0c-1,0 -1,0 -2,0 0,0 -1,0 -1,0 -1,0 -3,1 -4,1 -1,0 -1,0 -1,1 -1,0 -1,0 -1,0 0,0 0,0 0,0 1,0 1,0 1,0 2,-1 4,-1 5,0 1,0 1,0 1,0 0,-1 1,-1 1,-2z"/>
   <path class="fil5" d="M7 14c0,-2 1,-4 2,-6l1 -1c0,0 0,0 -1,0 -1,1 -1,1 -2,3 -1,0 -1,1 -2,2 0,0 0,1 -1,2 1,0 1,0 2,-1 0,0 1,0 1,1z"/>
   <path class="fil6" d="M15 28c-1,0 -2,0 -2,-1l-2 0c0,-1 0,-1 -1,-1l-1 1c1,1 2,1 3,1 1,0 2,0 3,0z"/>
   <path class="fil7" d="M25 19l-1 0c-1,0 -1,0 -2,0 0,0 -1,0 -1,0 0,0 0,0 0,1l0 0c0,0 1,1 1,1 0,1 1,2 1,2 0,1 1,1 1,1 0,0 0,1 0,1 0,0 0,0 0,0 1,0 1,0 1,0l2 -3c0,-1 1,-1 1,-2 0,0 0,-1 1,-1l0 -1 -4 1z"/>
   <rect class="fil0" width="30" height="30"/>
  </g>
 </g>
</svg>
