<?xml version="1.0" encoding="UTF-8"?>
<!DOCTYPE svg PUBLIC "-//W3C//DTD SVG 1.1//EN" "http://www.w3.org/Graphics/SVG/1.1/DTD/svg11.dtd">
<!-- Creator: CorelDRAW X7 -->
<svg xmlns="http://www.w3.org/2000/svg" xml:space="preserve" width="30px" height="30px" version="1.1" style="shape-rendering:geometricPrecision; text-rendering:geometricPrecision; image-rendering:optimizeQuality; fill-rule:evenodd; clip-rule:evenodd"
viewBox="0 0 30 30"
 xmlns:xlink="http://www.w3.org/1999/xlink">
 <defs>
  <style type="text/css">
   <![CDATA[
    .fil0 {fill:none}
    .fil2 {fill:#805F1B}
    .fil1 {fill:url(#id0)}
   ]]>
  </style>
  <linearGradient id="id0" gradientUnits="userSpaceOnUse" x1="1.86378" y1="14.9988" x2="28.1386" y2="14.9988">
   <stop offset="0" style="stop-opacity:1; stop-color:#0B3F59"/>
   <stop offset="1" style="stop-opacity:1; stop-color:#419DAB"/>
  </linearGradient>
 </defs>
 <g id="Layer_x0020_1">
  <metadata id="CorelCorpID_0Corel-Layer"/>
  <g id="_1598412397520">
   <g>
    <rect class="fil0" width="30" height="30"/>
    <g>
     <path class="fil1" d="M24 13l0 2 -18 0c0,-1 0,-1 0,-2 0,0 0,0 1,0l17 0zm-18 -3l18 0 0 2 -18 0 0 -2zm0 -3c0,0 18,0 18,0l0 2 -18 0 0 -2zm-4 0l3 0c0,0 0,2 0,2l-3 0 0 0c0,1 0,1 1,1 0,0 2,0 2,0 0,0 0,2 0,2 -1,0 -1,0 -2,0 0,0 -1,0 -1,0 0,1 0,1 0,1 1,0 3,0 3,0 0,0 0,0 0,0l0 2c-1,0 -3,-1 -3,1 0,0 0,2 0,2 0,2 2,1 3,1 0,1 0,6 0,6 0,1 0,0 0,1 1,0 1,-1 1,-1 0,-1 0,-5 0,-6 0,0 0,0 0,0l2 0c0,1 0,4 0,5 0,0 0,0 1,0 0,0 1,0 1,0 0,-1 -1,-4 0,-5l10 0c1,1 0,4 0,5 0,0 1,0 1,0 1,0 1,0 1,0 0,-1 0,-4 0,-5 0,0 2,0 2,0 0,2 0,4 0,6 0,0 0,1 1,1 0,-1 0,0 0,-1 0,0 0,-5 0,-6 1,0 3,1 3,-1 0,0 0,-2 0,-2 0,-2 -2,-1 -3,-1l0 -2c1,0 2,0 3,0 0,0 0,0 0,-1 0,0 -1,0 -1,0 -1,0 -1,0 -2,0l0 -2c1,0 3,0 3,0 0,-1 0,-1 0,-1l-1 0 -2 0c0,0 0,-2 0,-2l3 0c0,0 0,0 0,-1 -1,0 -2,0 -3,0 0,0 0,-1 0,-1 0,-1 0,0 0,-1 -1,0 -1,1 -1,2l-18 0c0,-1 0,-2 -1,-2 0,1 0,1 0,2 -1,0 -2,0 -2,0 -1,0 -1,1 -1,1z"/>
     <path class="fil2" d="M2 9l3 0c0,0 0,-2 0,-2l-3 0c0,0 0,0 1,0 0,0 0,0 0,0 0,0 2,0 2,0l0 0c0,1 0,2 0,2 -1,0 -2,0 -3,0z"/>
     <path class="fil2" d="M27 9c0,0 -1,0 -2,0 0,0 0,-2 0,-2 0,0 2,0 2,0l0 0c0,0 1,0 1,0 0,0 0,0 0,0l-3 0c0,0 0,2 0,2l2 0z"/>
    </g>
   </g>
   <rect class="fil0" width="30" height="30"/>
  </g>
 </g>
</svg>
