<?xml version="1.0" encoding="UTF-8"?>
<!DOCTYPE svg PUBLIC "-//W3C//DTD SVG 1.1//EN" "http://www.w3.org/Graphics/SVG/1.1/DTD/svg11.dtd">
<!-- Creator: CorelDRAW X7 -->
<svg xmlns="http://www.w3.org/2000/svg" xml:space="preserve" width="30px" height="30px" version="1.1" style="shape-rendering:geometricPrecision; text-rendering:geometricPrecision; image-rendering:optimizeQuality; fill-rule:evenodd; clip-rule:evenodd"
viewBox="0 0 30 30"
 xmlns:xlink="http://www.w3.org/1999/xlink">
 <defs>
  <style type="text/css">
   <![CDATA[
    .fil0 {fill:none}
    .fil2 {fill:url(#id0)}
    .fil1 {fill:url(#id1)}
    .fil3 {fill:url(#id2)}
    .fil4 {fill:url(#id3)}
   ]]>
  </style>
  <linearGradient id="id0" gradientUnits="userSpaceOnUse" x1="4.76339" y1="12.5551" x2="25.2354" y2="12.5551">
   <stop offset="0" style="stop-opacity:1; stop-color:#0B3F59"/>
   <stop offset="1" style="stop-opacity:1; stop-color:#419DAB"/>
  </linearGradient>
  <linearGradient id="id1" gradientUnits="userSpaceOnUse" xlink:href="#id0" x1="0.757087" y1="7.74567" x2="29.2406" y2="7.74567">
  </linearGradient>
  <linearGradient id="id2" gradientUnits="userSpaceOnUse" xlink:href="#id0" x1="8.76732" y1="17.4047" x2="21.2291" y2="17.4047">
  </linearGradient>
  <linearGradient id="id3" gradientUnits="userSpaceOnUse" xlink:href="#id0" x1="12.698" y1="23.9457" x2="17.3114" y2="23.9457">
  </linearGradient>
 </defs>
 <g id="Layer_x0020_1">
  <metadata id="CorelCorpID_0Corel-Layer"/>
  <g id="_1598553448432">
   <g>
    <rect class="fil0" width="30" height="30"/>
    <g>
     <path class="fil1" d="M1 10l2 2c0,-1 1,-2 2,-2 1,-1 2,-1 3,-2 5,-2 12,-2 17,2 1,0 2,1 2,2l2 -2 0 0c0,-1 -2,-2 -4,-3 -3,-2 -6,-3 -9,-3l-2 0c-1,0 -3,0 -4,0 -3,1 -7,3 -9,5 0,0 0,0 0,1z"/>
     <path class="fil2" d="M5 14c0,0 1,1 2,2 0,-1 1,-1 1,-2 5,-2 9,-2 14,0 0,1 1,1 1,2 1,-1 2,-2 2,-2 0,0 -1,-2 -2,-2 0,0 0,0 -1,-1 -1,0 -2,-1 -4,-1 -4,-1 -8,0 -11,2 -1,0 -2,2 -2,2z"/>
     <path class="fil3" d="M9 18c0,0 1,1 2,2 1,-1 2,-2 4,-2 1,0 2,0 2,0 1,1 2,1 2,2 1,-1 2,-2 2,-2 0,0 -1,-1 -2,-2 -2,-1 -5,-1 -8,0 0,0 0,0 0,0 -1,1 -2,2 -2,2z"/>
     <path class="fil4" d="M15 26l0 0c0,0 1,0 1,0 2,-1 2,-4 -1,-4 -1,0 -2,1 -2,2 0,1 1,2 2,2z"/>
    </g>
   </g>
   <rect class="fil0" width="30" height="30"/>
  </g>
 </g>
</svg>
