<?xml version="1.0" encoding="UTF-8"?>
<!DOCTYPE svg PUBLIC "-//W3C//DTD SVG 1.1//EN" "http://www.w3.org/Graphics/SVG/1.1/DTD/svg11.dtd">
<!-- Creator: CorelDRAW X7 -->
<svg xmlns="http://www.w3.org/2000/svg" xml:space="preserve" width="2.5401mm" height="1.454mm" version="1.1" style="shape-rendering:geometricPrecision; text-rendering:geometricPrecision; image-rendering:optimizeQuality; fill-rule:evenodd; clip-rule:evenodd"
viewBox="0 0 38 22"
 xmlns:xlink="http://www.w3.org/1999/xlink">
 <defs>
  <style type="text/css">
   <![CDATA[
    .fil0 {fill:#387A78}
    .fil1 {fill:#4FB1AB}
   ]]>
  </style>
 </defs>
 <g id="Layer_x0020_1">
  <metadata id="CorelCorpID_0Corel-Layer"/>
  <g id="_2900232438416">
   <path class="fil0" d="M21 8c-1,0 0,0 -1,0 1,0 1,0 1,0zm-1 0c-1,0 0,0 0,0 1,0 0,0 0,0zm0 0c-1,0 -1,0 -1,0 1,0 1,0 1,0zm-1 0c-1,0 0,0 0,0 1,0 0,0 0,0zm0 0l-1 0 1 0zm-1 -1c0,0 0,1 0,0 0,0 -1,1 0,0zm3 1c0,0 1,1 1,1 1,0 1,-1 2,-1 -1,1 -3,4 -3,4 1,0 2,0 3,0 1,0 1,0 3,0 0,-1 0,-1 1,-1 0,-1 0,-2 2,-2l-2 2c0,1 1,1 1,1 1,0 4,-2 4,-2l1 -1c0,-1 0,-1 -1,-1 -1,-1 -6,-2 -7,-2 -4,0 -3,1 -7,0 -1,0 -2,-1 -3,-1 0,1 0,1 0,2 1,0 1,0 2,0 -1,1 0,0 -1,0l-4 0c-2,0 -4,1 -5,1 -2,0 -5,0 -7,1 -1,0 -1,0 -1,1 1,0 0,0 1,1 0,-1 1,-1 2,-1 6,-1 12,-1 19,-1 0,0 0,0 0,0l-1 -1z"/>
   <g>
    <path class="fil1" d="M28 13c0,1 -1,1 -1,2 0,0 0,1 0,2 0,0 0,1 0,2 0,0 0,1 0,2 6,0 5,-1 5,-2l1 -4c0,0 0,-1 0,-1 0,-1 0,-1 0,-1 -2,0 -3,0 -5,0z"/>
    <path class="fil1" d="M10 21c0,-1 0,-2 0,-2 0,-1 0,-1 0,-2 0,-1 0,-2 0,-2 0,-1 0,-1 0,-2 -2,0 -3,0 -5,0 0,0 0,0 0,1 0,0 0,1 0,1 0,1 0,1 0,1 0,1 0,2 0,2 0,1 0,1 0,2 0,0 0,0 1,0 0,1 3,1 4,1z"/>
    <path class="fil1" d="M22 13l0 8 5 0c0,-1 0,-1 0,-2 0,-1 0,-2 0,-2 0,-1 0,-1 0,-2 0,-1 0,-1 0,-2l-5 0z"/>
    <path class="fil1" d="M16 17c0,1 0,2 0,4l5 0 0 -8 -5 0 0 4z"/>
    <polygon class="fil1" points="11,21 16,21 16,13 10,13 "/>
    <path class="fil1" d="M33 12l0 6c0,1 0,2 0,2 1,0 3,0 3,0 1,0 1,-4 1,-4l0 -4c0,0 -3,0 -4,0z"/>
    <path class="fil1" d="M5 20l-1 -8c-1,0 -3,0 -4,0l1 8c0,0 3,0 4,0z"/>
    <path class="fil1" d="M37 20l0 0c-2,1 -6,1 -8,1 -6,0 -24,0 -28,-1 0,1 0,1 3,1 4,0 8,0 12,0 1,0 1,1 2,1 4,0 11,-1 15,-1 1,0 2,0 4,-1z"/>
   </g>
   <path class="fil0" d="M24 2c0,4 6,4 6,1 0,-4 -6,-4 -6,-1z"/>
   <path class="fil0" d="M34 9l-1 1c1,0 0,0 1,0 0,0 1,0 1,0 1,0 1,1 2,1 0,-1 0,-1 1,-1 0,0 0,0 0,0l0 0c0,-1 -1,-1 -2,-1 0,0 -1,-1 -2,-1 0,1 0,1 0,1z"/>
  </g>
 </g>
</svg>
