<?xml version="1.0" encoding="UTF-8"?>
<!DOCTYPE svg PUBLIC "-//W3C//DTD SVG 1.1//EN" "http://www.w3.org/Graphics/SVG/1.1/DTD/svg11.dtd">
<!-- Creator: CorelDRAW X7 -->
<svg xmlns="http://www.w3.org/2000/svg" xml:space="preserve" width="2.5399mm" height="2.54mm" version="1.1" style="shape-rendering:geometricPrecision; text-rendering:geometricPrecision; image-rendering:optimizeQuality; fill-rule:evenodd; clip-rule:evenodd"
viewBox="0 0 42 42"
 xmlns:xlink="http://www.w3.org/1999/xlink">
 <defs>
  <style type="text/css">
   <![CDATA[
    .fil0 {fill:#4FB1AB}
   ]]>
  </style>
 </defs>
 <g id="Layer_x0020_1">
  <metadata id="CorelCorpID_0Corel-Layer"/>
  <path class="fil0" d="M10 15c0,4 -1,2 1,7 -2,-1 -3,-5 -1,-7zm16 -3l-1 0c0,2 0,6 0,9l-1 0 0 -9 -1 0 0 9 0 0 0 -9 -1 0 0 9 -1 0 0 -9 -1 0c0,1 0,5 -1,7 0,3 2,3 3,5 1,3 0,5 0,7 0,3 0,6 0,8 -3,0 -6,0 -8,-1 0,-2 1,-7 0,-9 0,-1 -1,-2 0,-4 0,-2 0,-1 1,-2 5,-4 3,-11 -1,-12 -6,-1 -8,8 -4,12 1,0 1,0 2,1 1,1 -1,5 -1,8 0,1 0,3 0,4 -1,0 -3,-2 -4,-3 -3,-5 -5,-11 -3,-17 5,-16 27,-17 34,-2 1,4 2,8 1,12 -1,3 -4,8 -6,9l0 -24c-2,0 -4,7 -4,8 0,3 -1,7 -1,11 3,1 2,3 2,4 0,1 0,2 0,3 -1,1 -4,2 -6,2 0,-3 0,-5 0,-8 0,-2 -1,-5 0,-7 2,-4 4,0 2,-12zm-7 -12c-8,1 -15,7 -18,14 -1,3 -1,6 -1,9 1,11 11,20 23,19 11,-1 20,-10 19,-23 -1,-12 -11,-20 -23,-19z"/>
 </g>
</svg>
