<?xml version="1.0" encoding="UTF-8"?>
<!DOCTYPE svg PUBLIC "-//W3C//DTD SVG 1.1//EN" "http://www.w3.org/Graphics/SVG/1.1/DTD/svg11.dtd">
<!-- Creator: CorelDRAW X7 -->
<svg xmlns="http://www.w3.org/2000/svg" xml:space="preserve" width="2.5004mm" height="1.7374mm" version="1.1" style="shape-rendering:geometricPrecision; text-rendering:geometricPrecision; image-rendering:optimizeQuality; fill-rule:evenodd; clip-rule:evenodd"
viewBox="0 0 34 24"
 xmlns:xlink="http://www.w3.org/1999/xlink">
 <defs>
  <style type="text/css">
   <![CDATA[
    .fil1 {fill:#FEFEFE}
    .fil0 {fill:#4FB1AB}
    .fil4 {fill:#727272}
    .fil3 {fill:#757575}
    .fil2 {fill:#C4C4C4}
   ]]>
  </style>
 </defs>
 <g id="Layer_x0020_1">
  <metadata id="CorelCorpID_0Corel-Layer"/>
  <g id="_2900181176512">
   <path class="fil0" d="M16 4c1,0 3,0 4,0 1,1 1,1 2,2l1 1c0,1 1,2 2,3l4 4c0,0 0,1 0,1 0,0 1,0 0,1 0,0 -1,1 -2,1 -5,1 -12,2 -17,0 -1,0 -3,0 -4,-1 -2,-1 -1,-1 -1,-1 0,0 0,-1 1,-1l6 -8c1,-1 1,-1 2,-1 0,-1 1,-1 2,-1zm-16 4l0 0c0,1 0,1 0,2 1,1 2,7 2,7 0,1 2,1 3,2l0 2c-1,0 -2,-1 -3,-1 0,0 0,0 0,0 0,1 0,0 0,1 0,0 0,0 0,0 0,0 0,0 0,0 1,0 1,0 1,0l1 0c0,1 0,1 0,1 0,0 -2,0 -2,0 0,0 0,1 0,1 0,1 1,1 1,0 0,0 2,-1 2,-1 0,0 2,1 2,1 0,0 0,0 0,0 1,0 1,0 1,0 0,0 0,0 0,0 0,-1 0,-1 -1,-1 0,0 0,0 0,0 0,0 -1,0 -1,0 0,0 0,0 0,0 0,0 0,0 0,-1 0,0 1,0 1,0 0,0 0,0 0,0 1,0 1,0 1,0 0,0 0,-1 0,-1 0,0 -1,1 -2,1l0 -2c0,0 0,0 1,0 0,0 0,0 1,0 0,1 1,1 2,1 0,0 0,0 0,0 0,0 0,0 0,0 1,1 1,2 1,4l13 0c0,-1 -1,-3 0,-3 1,-1 1,-1 3,-1 0,-1 1,-1 1,-1l0 2c0,0 -2,-1 -2,-1 0,0 0,0 0,0 0,1 0,1 0,1 0,0 0,0 0,0 0,0 0,1 1,0 0,0 0,0 0,0l1 0c0,1 0,0 0,1l0 0c-1,0 -1,0 -1,0 -1,0 -1,0 -1,0 0,1 0,1 0,1 0,0 0,0 0,0 0,1 0,0 1,0 0,0 0,0 0,0 0,0 2,-1 2,-1 0,0 2,1 2,1l0 0c0,0 1,0 1,0 0,0 0,-1 0,-1 0,0 -2,0 -2,-1l1 0c0,0 0,0 1,0 0,0 0,0 0,0 0,-2 -1,0 -3,0l0 -2c1,-1 2,-1 3,-1 0,-1 0,-1 0,-2l1 -4c1,-1 1,-2 1,-3 0,-1 0,-2 -1,-3 -1,0 -2,0 -3,0 -1,0 -1,0 -2,0 -1,1 -1,2 -1,3 0,0 0,1 0,1 -1,0 0,0 0,-1 0,-1 0,-2 1,-3 1,0 1,0 2,0 0,-1 0,-1 0,-1 -1,-1 -1,-1 -1,-1 -1,0 -2,0 -3,0 -1,0 -1,0 -2,1 0,0 0,0 0,1 0,0 0,0 0,0 0,0 0,0 0,1l0 0c0,0 0,0 0,-1 0,-1 0,-2 1,-2 0,0 1,0 1,0 0,-1 0,-2 -1,-2 0,0 -1,0 -2,0 0,0 -1,0 -1,0 -1,1 -1,1 -1,2 0,0 0,0 -1,0 0,-1 0,-2 0,-2 0,-1 0,-1 0,-1 -1,-1 -4,-1 -5,0 -1,0 -1,0 -1,1 0,0 0,1 0,2 0,0 -1,0 -1,0 0,0 0,-1 -1,-2 0,0 0,0 -1,0 -1,0 -2,0 -2,0 -1,0 -1,1 -1,2 1,0 1,0 1,0 1,0 1,0 1,0 0,1 1,2 1,2l-1 1c0,0 0,0 0,0 0,-1 0,-2 0,-2 -1,-1 -1,-1 -2,-1 -1,0 -2,0 -3,0 -1,0 -1,1 0,2 0,0 1,0 1,0 1,0 1,1 1,1 0,1 0,2 1,3 0,0 0,0 0,0 -1,0 -1,-1 -1,-1 0,-1 0,-3 -2,-3 -1,0 -2,0 -3,0 -1,0 -2,1 -2,2z"/>
   <path class="fil1" d="M16 4c-1,0 -2,0 -2,1 -1,0 -1,0 -2,1l-6 8c-1,0 -1,1 -1,1 0,0 -1,0 1,1 1,1 3,1 4,1 5,2 12,1 17,0 1,0 2,-1 2,-1 1,-1 0,-1 0,-1 0,0 0,-1 0,-1l-4 -4c-1,-1 -2,-2 -2,-3l-1 -1c-1,-1 -1,-1 -2,-2 -1,0 -3,0 -4,0z"/>
   <path class="fil2" d="M0 8l0 0c0,0 0,0 0,0 0,0 0,0 0,0z"/>
   <path class="fil3" d="M28 22l0 0c0,-1 0,0 0,-1 0,1 0,0 0,1z"/>
   <path class="fil4" d="M27 21c0,0 0,0 0,0 0,0 0,0 0,0z"/>
  </g>
 </g>
</svg>
