<?xml version="1.0" encoding="UTF-8"?>
<!DOCTYPE svg PUBLIC "-//W3C//DTD SVG 1.1//EN" "http://www.w3.org/Graphics/SVG/1.1/DTD/svg11.dtd">
<!-- Creator: CorelDRAW X7 -->
<svg xmlns="http://www.w3.org/2000/svg" xml:space="preserve" width="2.5591mm" height="1.1648mm" version="1.1" style="shape-rendering:geometricPrecision; text-rendering:geometricPrecision; image-rendering:optimizeQuality; fill-rule:evenodd; clip-rule:evenodd"
viewBox="0 0 37 17"
 xmlns:xlink="http://www.w3.org/1999/xlink">
 <defs>
  <style type="text/css">
   <![CDATA[
    .fil0 {fill:#4FB1AB}
   ]]>
  </style>
 </defs>
 <g id="Layer_x0020_1">
  <metadata id="CorelCorpID_0Corel-Layer"/>
  <path class="fil0" d="M28 16l0 0 0 0c1,0 1,1 2,1 0,0 1,0 1,-1 1,0 0,-2 0,-3 1,0 1,1 1,1 2,0 1,-2 1,-4l2 0 0 0c0,-1 1,0 2,0l0 -3 -2 0 0 0 -2 0c0,-2 1,-4 -1,-4 0,0 0,0 -1,1 0,-2 1,-3 0,-4 0,0 -1,0 -2,0 0,0 0,1 -1,1 0,0 0,-1 0,-1 -1,0 -3,0 -3,2 0,1 0,3 0,5l-13 0c-1,-2 0,-4 0,-5 0,-1 -1,-2 -2,-2 -1,0 -1,1 -1,1 -1,0 -1,-1 -1,-1 -1,0 -2,0 -2,0 -1,1 0,2 0,4 -1,-1 -2,-1 -2,0 0,0 0,2 0,3l-2 0 0 0c0,0 -2,0 -2,0l0 3c0,0 2,-1 2,0l0 0 2 0c0,1 0,3 0,3 0,1 1,1 2,0 0,2 -1,3 0,3 0,1 1,1 2,1 0,0 0,-1 1,-1 0,0 0,0 0,1 1,0 2,0 2,-1 0,0 1,0 0,-1 0,-2 0,-4 1,-5l13 0c0,1 0,3 0,5 0,1 1,2 2,2 0,0 1,0 1,-1z"/>
 </g>
</svg>
