<?xml version="1.0" encoding="UTF-8"?>
<!DOCTYPE svg PUBLIC "-//W3C//DTD SVG 1.1//EN" "http://www.w3.org/Graphics/SVG/1.1/DTD/svg11.dtd">
<!-- Creator: CorelDRAW X7 -->
<svg xmlns="http://www.w3.org/2000/svg" xml:space="preserve" width="1.8089mm" height="2.5068mm" version="1.1" style="shape-rendering:geometricPrecision; text-rendering:geometricPrecision; image-rendering:optimizeQuality; fill-rule:evenodd; clip-rule:evenodd"
viewBox="0 0 19 27"
 xmlns:xlink="http://www.w3.org/1999/xlink">
 <defs>
  <style type="text/css">
   <![CDATA[
    .fil0 {fill:#387A78}
    .fil1 {fill:#4FB1AB}
   ]]>
  </style>
 </defs>
 <g id="Layer_x0020_1">
  <metadata id="CorelCorpID_0Corel-Layer"/>
  <g id="_2900275410624">
   <path class="fil0" d="M11 27c0,-1 -1,-1 -1,-1 0,-1 0,-1 -1,-1 0,0 0,0 -1,0 0,-1 0,-4 0,-6 0,0 0,-4 0,-4 0,0 6,-7 6,-7 0,0 1,-1 1,-2 0,0 0,0 0,0 1,0 1,-1 1,-1l-3 0 -7 0 1 2 6 0c0,1 -2,3 -2,3 -1,1 -1,2 -2,3 -1,1 -1,1 -1,1 0,0 -1,-1 -1,-1 -1,-1 -2,-3 -3,-4 0,0 -1,-1 -1,-2l3 0 -1 -2 -5 0c0,0 1,2 2,2 0,1 1,1 1,2 1,1 2,3 3,4 1,1 1,1 2,2 0,0 0,0 0,1 0,1 0,9 0,9 -1,0 -1,0 -1,0 -1,0 -2,1 -2,2l6 0z"/>
   <path class="fil1" d="M5 5l1 2 -3 0c0,1 1,2 1,2 1,1 2,3 3,4 0,0 1,1 1,1 0,0 0,0 1,-1 1,-1 1,-2 2,-3 0,0 2,-2 2,-3l-6 0 -1 -2c0,0 0,-2 0,-2l-1 -3c0,0 0,0 0,0l-2 0c-1,0 -2,0 -3,0l0 1 5 0c0,0 0,1 0,2 0,1 0,1 0,2z"/>
   <path class="fil1" d="M13 5l3 0c0,0 0,1 -1,1 0,0 0,0 0,0 0,1 -1,2 -1,2 0,0 1,1 3,0 0,0 0,0 1,0 0,0 0,0 0,0 0,0 0,-1 1,-1 0,0 0,0 0,-1 0,0 0,0 0,0 0,0 0,0 0,0 0,0 0,-1 0,-1 0,-1 0,-1 0,-1 0,0 0,-1 0,-1 0,0 0,0 -1,0l0 -1c0,0 0,0 0,0 0,0 0,0 0,0 0,0 0,0 0,0l-1 0c-1,0 -2,0 -3,0 -1,1 -1,1 -1,2 0,0 0,0 0,0 0,0 0,0 0,0 0,1 0,1 0,1z"/>
  </g>
 </g>
</svg>
