<?xml version="1.0" encoding="UTF-8"?>
<!DOCTYPE svg PUBLIC "-//W3C//DTD SVG 1.1//EN" "http://www.w3.org/Graphics/SVG/1.1/DTD/svg11.dtd">
<!-- Creator: CorelDRAW X7 -->
<svg xmlns="http://www.w3.org/2000/svg" xml:space="preserve" width="2.5614mm" height="2.0952mm" version="1.1" style="shape-rendering:geometricPrecision; text-rendering:geometricPrecision; image-rendering:optimizeQuality; fill-rule:evenodd; clip-rule:evenodd"
viewBox="0 0 37 30"
 xmlns:xlink="http://www.w3.org/1999/xlink">
 <defs>
  <style type="text/css">
   <![CDATA[
    .fil1 {fill:#FEFEFE}
    .fil0 {fill:#4FB1AB}
   ]]>
  </style>
 </defs>
 <g id="Layer_x0020_1">
  <metadata id="CorelCorpID_0Corel-Layer"/>
  <g id="_2900101867856">
   <path class="fil0" d="M37 13l-8 5c-2,0 -3,1 -4,2 -1,0 -1,1 -3,0 0,0 -1,0 -2,-1 -3,-1 -6,-2 -9,-3 -3,-1 -6,-2 -9,-3 0,-2 0,-3 2,-4l9 -2c3,-1 4,-1 5,-1l0 -6c-2,0 -13,3 -16,4 -2,0 -2,0 -2,1 0,4 0,8 0,12 0,2 0,4 1,4 2,1 3,0 3,-1l4 1c2,1 3,1 4,2l6 3c1,0 1,0 2,1 0,1 0,4 3,3 2,0 3,-2 3,-4 2,-1 4,-3 7,-4 0,2 3,1 4,-1 1,-2 0,-6 0,-8z"/>
   <path class="fil0" d="M37 13c0,-2 0,-3 -2,-3 -2,0 -3,-1 -4,-1 -2,0 -7,-2 -9,-2 -1,1 -10,3 -12,4 -2,1 -4,1 -4,3 2,1 6,2 8,3 3,1 6,2 8,3 2,0 3,-1 4,-2 2,0 10,-5 11,-5z"/>
   <path class="fil1" d="M37 13l0 0c-1,0 -9,5 -11,5 -1,1 -2,2 -4,2 -2,-1 -5,-2 -8,-3 -2,-1 -6,-2 -8,-3 0,-2 2,-2 4,-3 2,-1 11,-3 12,-4 0,0 0,0 0,0 -1,0 -3,0 -4,-1 -1,0 -2,0 -5,1l-9 2c-2,1 -2,2 -2,4 3,1 6,2 9,3 3,1 6,2 9,3 1,1 2,1 2,1 2,1 2,0 3,0 1,-1 2,-2 4,-2l8 -5z"/>
  </g>
 </g>
</svg>
