<?xml version="1.0" encoding="UTF-8"?>
<!DOCTYPE svg PUBLIC "-//W3C//DTD SVG 1.1//EN" "http://www.w3.org/Graphics/SVG/1.1/DTD/svg11.dtd">
<!-- Creator: CorelDRAW X7 -->
<svg xmlns="http://www.w3.org/2000/svg" xml:space="preserve" width="2.54mm" height="1.3867mm" version="1.1" style="shape-rendering:geometricPrecision; text-rendering:geometricPrecision; image-rendering:optimizeQuality; fill-rule:evenodd; clip-rule:evenodd"
viewBox="0 0 41 22"
 xmlns:xlink="http://www.w3.org/1999/xlink">
 <defs>
  <style type="text/css">
   <![CDATA[
    .fil0 {fill:#4FB1AB}
   ]]>
  </style>
 </defs>
 <g id="Layer_x0020_1">
  <metadata id="CorelCorpID_0Corel-Layer"/>
  <path class="fil0" d="M6 2l0 -1c0,0 0,0 -1,-1 -4,1 -6,8 -4,14 1,4 5,7 11,8 10,1 15,-6 22,-7 3,0 4,2 7,3 0,-3 -4,-6 -9,-6 -5,0 -7,2 -11,3 -9,3 -13,-5 -9,-9 2,-1 4,1 6,1 0,-4 -3,-4 -7,-4 1,-1 1,-1 2,-2 -3,-2 -5,1 -7,1z"/>
 </g>
</svg>
