<?xml version="1.0" encoding="UTF-8"?>
<!DOCTYPE svg PUBLIC "-//W3C//DTD SVG 1.1//EN" "http://www.w3.org/Graphics/SVG/1.1/DTD/svg11.dtd">
<!-- Creator: CorelDRAW X7 -->
<svg xmlns="http://www.w3.org/2000/svg" xml:space="preserve" width="30px" height="30px" version="1.1" style="shape-rendering:geometricPrecision; text-rendering:geometricPrecision; image-rendering:optimizeQuality; fill-rule:evenodd; clip-rule:evenodd"
viewBox="0 0 30 30"
 xmlns:xlink="http://www.w3.org/1999/xlink">
 <defs>
  <style type="text/css">
   <![CDATA[
    .fil0 {fill:none}
    .fil1 {fill:#0B3F59}
    .fil2 {fill:#419DAB}
    .fil3 {fill:#78C9D6}
    .fil4 {fill:gainsboro}
   ]]>
  </style>
 </defs>
 <g id="Layer_x0020_1">
  <metadata id="CorelCorpID_0Corel-Layer"/>
  <g id="_1598412380720">
   <rect class="fil0" width="30" height="30"/>
   <rect class="fil0" width="30" height="30"/>
   <path class="fil1" d="M4 8c1,0 1,0 1,0 0,-1 0,0 0,0 0,0 0,0 -1,0zm14 2c1,-1 2,-1 3,-1 -1,1 0,0 -3,1 0,1 0,1 0,1 -1,1 -2,2 0,4 0,-1 0,-2 1,-3 0,-1 2,-2 3,-2 0,1 -1,3 -1,4 0,0 -1,2 -1,2 0,1 -1,2 -1,3l-1 2c-1,0 -2,0 -3,0 -1,-1 -1,-1 -1,-2 -2,-2 -6,-10 -4,-13 0,0 1,0 2,2 1,1 2,2 2,4 2,-1 1,-6 -3,-6 4,-1 4,1 6,2 0,-2 -1,-3 -2,-3 0,0 0,0 0,-1 -1,0 0,0 -2,0 -2,0 -2,0 -3,1 1,-1 2,-2 5,-2 -1,-1 -1,-1 -2,-1 0,-1 -2,0 -3,1 0,0 0,1 -1,1 0,-1 0,-2 -1,-2 -1,0 -3,-1 -4,1 1,0 2,0 3,0 1,1 1,1 1,1 1,1 1,1 1,1 -1,-1 -3,-1 -4,-1 -1,0 -1,0 0,0 -2,0 -3,2 -3,4 1,-1 1,-2 3,-2 2,-1 2,0 4,0 -2,0 -3,0 -4,1 -1,1 -1,1 -1,1 -1,2 0,3 1,4 0,-1 0,-1 0,-2 1,-2 2,-3 4,-4l0 1c0,3 0,4 1,6 0,1 1,3 1,5l1 3c-1,0 -3,1 -4,2 0,0 0,0 -1,1 -1,0 -1,0 -1,1 1,0 2,-1 5,-1 5,0 6,2 15,0 0,0 0,0 0,0 0,0 0,0 0,0 -1,0 -1,0 -1,0 -1,-1 -4,-2 -5,-3l1 -3c0,-1 1,-3 1,-3 0,-1 0,-2 0,-3 0,0 0,-1 0,-2 1,0 2,1 2,1 1,1 1,3 1,4l0 0c2,-2 1,-1 1,-3l0 0c0,0 0,0 0,0 0,-1 0,-1 0,-1 -1,0 -1,-1 -1,-1l-1 0c2,0 3,1 4,2 0,-2 0,-3 -2,-3 0,-1 0,0 0,-1 -1,0 -1,0 -2,0l-1 1c0,0 0,0 0,-1 0,0 0,0 0,0 2,0 2,-1 3,-1 -1,-1 -1,-1 -2,0 -1,0 -1,0 -1,0 -1,1 -1,1 -1,2 0,-1 -1,-2 -2,-2 -1,-1 -1,-1 -2,0 0,0 1,0 2,1 0,0 1,1 1,1 -1,-1 -2,-1 -4,-1 0,1 -2,1 -1,3 0,0 1,-1 2,-1z"/>
   <path class="fil2" d="M3 25c8,-1 8,2 15,3 8,2 11,-4 9,-8 -1,8 -14,3 -18,3 -2,0 -5,1 -6,2z"/>
   <path class="fil3" d="M13 4c2,0 1,0 2,0 0,1 0,1 0,1 1,0 2,1 2,3 -2,-1 -2,-3 -6,-2 4,0 5,5 3,6 0,-2 -1,-3 -2,-4 -1,-2 -2,-2 -2,-2 -2,3 2,11 4,13 2,1 3,0 5,0 0,-1 1,-2 1,-3 0,0 1,-2 1,-2 0,-1 1,-3 1,-4 -1,0 -3,1 -3,2 -1,1 -1,2 -1,3 -2,-2 -1,-3 0,-4 0,0 0,0 0,-1 3,-1 2,0 3,-1 -1,0 -2,0 -3,1 -1,0 -2,1 -2,1 -1,-2 1,-2 1,-3 2,0 3,0 4,1 0,0 -1,-1 -1,-1 -1,-1 -2,-1 -2,-1 1,-1 1,-1 2,0 1,0 2,1 2,2 0,-1 0,-1 1,-2 -1,-1 -3,-3 -4,-3 -2,-1 -5,-1 -6,0zm-2 14c0,-2 -1,-4 -1,-5 -1,-2 -1,-3 -1,-6 -1,2 -2,4 -1,6 0,2 2,4 3,5zm11 -3c0,0 -1,2 -1,3 1,-1 3,-4 3,-7 0,0 -1,-1 -2,-1 0,1 0,2 0,2 0,1 0,2 0,3zm2 -7l-1 0c0,0 0,0 0,0 0,1 0,1 0,1l1 -1z"/>
   <path class="fil4" d="M4 8c1,0 1,0 1,0 0,0 0,-1 0,0 0,0 0,0 -1,0z"/>
  </g>
 </g>
</svg>
