<?xml version="1.0" encoding="UTF-8"?>
<!DOCTYPE svg PUBLIC "-//W3C//DTD SVG 1.1//EN" "http://www.w3.org/Graphics/SVG/1.1/DTD/svg11.dtd">
<!-- Creator: CorelDRAW X7 -->
<svg xmlns="http://www.w3.org/2000/svg" xml:space="preserve" width="2.9538mm" height="2.5797mm" version="1.1" style="shape-rendering:geometricPrecision; text-rendering:geometricPrecision; image-rendering:optimizeQuality; fill-rule:evenodd; clip-rule:evenodd"
viewBox="0 0 51 45"
 xmlns:xlink="http://www.w3.org/1999/xlink">
 <defs>
  <style type="text/css">
   <![CDATA[
    .str0 {stroke:#014670;stroke-width:1.31897}
    .fil1 {fill:#FEFEFE}
    .fil0 {fill:#014670}
    .fil2 {fill:#161616}
   ]]>
  </style>
 </defs>
 <g id="Layer_x0020_1">
  <metadata id="CorelCorpID_0Corel-Layer"/>
  <g id="_2900245778608">
   <path class="fil0" d="M14 20c-1,-3 2,-7 3,-9 0,-1 1,-2 2,-3 0,1 0,2 0,3 0,4 1,5 1,6 -1,0 -3,0 -4,1 -1,0 -1,1 -2,1 0,0 0,1 0,1zm23 -18l1 0c-1,0 -1,0 -1,0 -1,1 -2,2 -2,4 -1,-1 -1,-1 -3,-1 -2,-1 -5,0 -7,0 -1,0 -1,0 -2,0 0,0 -1,1 -1,1 0,-1 1,-1 1,-1 1,0 2,-1 2,-1 2,-1 5,-2 8,-2 0,0 1,0 2,0 1,0 1,0 2,0zm1 1c0,0 0,0 0,0 0,0 0,0 0,0 0,0 0,0 0,0 0,0 1,-1 1,-1 1,-1 1,-1 1,-1 0,0 0,0 -1,0l0 -1 -2 0 0 0c0,0 -1,0 -1,0 0,0 -2,0 -3,0 -1,0 -2,1 -3,1 -2,0 -4,1 -5,1 -1,0 -2,1 -3,1 0,0 -2,1 -2,1 0,0 -1,-2 -2,-2l-3 2c0,0 0,0 0,0 0,1 1,2 1,2 -1,1 -2,3 -3,4 0,0 0,0 -1,0 0,0 0,1 0,1l-2 3c-3,3 -4,6 -5,9 2,0 2,-1 4,-1 2,-1 3,0 4,1 1,0 1,-1 1,-1 0,0 1,-1 1,-1 2,-3 5,-2 7,-2 0,0 1,-2 2,-3 0,0 1,1 1,2 0,0 1,1 1,1l3 6c1,1 3,4 4,6 0,0 0,1 1,2 0,0 1,-1 1,-2 0,0 -1,-2 -2,-3l-5 -9c-1,-1 -1,-1 -2,-2 0,0 -1,-1 -1,-2l1 0c0,0 1,1 1,1l6 10c1,1 1,1 2,2l1 2c0,0 0,0 0,0 0,0 0,0 0,0 0,0 0,-1 1,-1 0,0 1,0 1,0 2,0 5,0 6,-1 0,0 -1,-1 -1,-1 0,0 0,0 -1,0 0,0 -5,1 -6,1 0,-2 -1,-3 -2,-4l-2 -3c0,-1 -4,-6 -4,-7 0,0 2,0 3,0 0,-2 0,-4 2,-5 2,-1 3,-1 4,-1 0,-1 0,-2 0,-3 0,-1 0,-1 1,-2zm-17 13c-1,-2 -1,-6 -1,-8 1,0 6,2 7,3 0,0 1,1 1,1 0,0 0,0 0,0l0 0c-2,0 -3,1 -4,2 -1,0 -2,2 -2,3l-1 -1zm-9 4c-1,0 -1,-1 -2,0 -1,0 -2,1 -2,1 0,-2 1,-3 1,-4 1,-1 2,-2 3,-3 2,-3 2,-3 4,-5 1,0 1,0 1,0l-2 2c-1,2 -3,6 -3,9zm9 -13c1,-1 5,-1 7,-1 2,0 5,0 6,1 0,0 -2,0 -3,1 -1,1 -1,2 -2,3 0,0 0,0 0,-1 -1,0 -2,-1 -3,-1 -1,-1 -5,-2 -5,-2zm-4 -2c0,-1 0,-1 0,-1 0,0 0,0 1,0 0,0 0,0 0,0 0,1 1,1 1,2l-1 0c0,0 -1,-1 -1,-1z"/>
   <path class="fil0" d="M34 32l-1 3c-2,2 -3,5 -5,7 0,0 -1,1 -1,1 3,0 5,0 8,0l5 -1c1,0 1,0 1,-1 0,0 0,0 0,0l0 0c0,-1 -6,-10 -6,-10l0 0c0,0 0,1 -1,1z"/>
   <path class="fil0" d="M26 35c-1,0 -1,0 -2,0 -1,0 -2,0 -3,0 -3,0 -6,1 -9,1 0,0 0,0 0,0 0,0 0,0 0,0 0,0 1,1 2,1l10 5c1,0 2,1 2,1l3 -5c0,0 1,-1 1,-1l-4 -2z"/>
   <path class="fil0 str0" d="M2 44c0,0 12,-2 12,-2 0,0 1,0 2,-1 0,0 1,0 1,-1l-7 -3 -8 7z"/>
   <path class="fil1" d="M22 17c0,-1 1,-3 2,-3 1,-1 2,-2 4,-2l0 0c0,0 0,0 0,0 0,0 -1,-1 -1,-1 -1,-1 -6,-3 -7,-3 0,2 0,6 1,8l1 1z"/>
   <path class="fil1" d="M14 20c0,0 0,-1 0,-1 1,0 1,-1 2,-1 1,-1 3,-1 4,-1 0,-1 -1,-2 -1,-6 0,-1 0,-2 0,-3 -1,1 -2,2 -2,3 -1,2 -4,6 -3,9z"/>
   <path class="fil1" d="M21 7c0,0 4,1 5,2 1,0 2,1 3,1 0,1 0,1 0,1 1,-1 1,-2 2,-3 1,-1 3,-1 3,-1 -1,-1 -4,-1 -6,-1 -2,0 -6,0 -7,1z"/>
   <path class="fil1" d="M37 2c0,0 0,0 1,0l-1 0c-1,0 -1,0 -2,0 -1,0 -2,0 -2,0 -3,0 -6,1 -8,2 0,0 -1,1 -2,1 0,0 -1,0 -1,1 0,0 1,-1 1,-1 1,0 1,0 2,0 2,0 5,-1 7,0 2,0 2,0 3,1 0,-2 1,-3 2,-4z"/>
   <path class="fil1" d="M12 20c0,-3 2,-7 3,-9l2 -2c0,0 0,0 -1,0 -2,2 -2,2 -4,5 -1,1 -2,2 -3,3 0,1 -1,2 -1,4 0,0 1,-1 2,-1 1,-1 1,0 2,0z"/>
   <path class="fil0" d="M26 45c-1,-1 -3,-2 -4,-2l-3 -1c0,-1 0,-1 -1,-1l-2 2c1,0 4,1 5,1 1,1 3,1 5,1z"/>
   <path class="fil0" d="M41 41l0 0 1 0c0,0 0,1 0,1 1,0 2,2 2,3 0,-1 1,-1 1,-1 -1,-1 -1,-2 -2,-2 0,-1 0,-1 0,-1 -1,-1 -1,-1 -1,-1 0,0 0,0 0,0 0,0 0,0 0,0 0,1 0,1 -1,1z"/>
   <g>
    <path class="fil0 str0" d="M38 32c0,-1 0,0 1,0 0,0 1,1 1,1 -1,0 -1,0 -1,0 0,0 0,0 -1,0 0,-1 0,-1 0,-1zm0 -1c1,-1 2,-1 2,0 0,0 -1,1 0,1 1,0 0,-1 1,0 0,0 -1,1 -1,1 -2,-1 0,-1 0,-2 -1,0 -1,0 -2,0l0 0zm2 -1c0,0 0,-1 1,-1 0,0 0,0 1,0 1,1 0,2 -1,2 0,0 0,0 0,0 0,0 1,0 1,-1 -1,0 -1,0 -1,0 0,0 0,0 0,0 0,1 0,0 0,0 0,0 0,0 0,0 0,0 -1,0 0,0 0,0 0,0 0,0 0,-1 0,-1 0,-1 0,0 -1,1 -1,1l0 0zm4 -2c0,0 0,0 0,0 0,0 0,1 0,1 0,0 0,-1 0,0 0,0 0,0 -1,0 0,0 0,0 0,0 0,0 0,0 0,1l0 0c0,0 -1,-1 -1,-1 0,0 0,0 -1,0l0 0c-1,0 -2,0 -3,0 0,0 -1,0 -1,0 -1,0 -1,1 -1,1l0 0c0,0 1,2 2,3 0,1 1,2 2,3 0,1 1,1 1,2 0,0 0,0 1,1 0,0 0,0 0,1 0,0 0,0 0,-1l4 -5c1,-1 1,-2 2,-3 0,-1 1,-1 1,-2l1 -1 -6 0z"/>
    <path class="fil2 str0" d="M40 30l0 0c0,0 1,-1 1,-1 0,0 0,0 0,1 0,0 0,0 0,0 -1,0 0,0 0,0 0,0 0,0 0,0 0,0 0,1 0,0 0,0 0,0 0,0 0,0 0,0 1,0 0,1 -1,1 -1,1 0,0 0,0 0,0 1,0 2,-1 1,-2 -1,0 -1,0 -1,0 -1,0 -1,1 -1,1z"/>
    <path class="fil2 str0" d="M38 31l0 0c1,0 1,0 2,0 0,1 -2,1 0,2 0,0 1,-1 1,-1 -1,-1 0,0 -1,0 -1,0 0,-1 0,-1 0,-1 -1,-1 -2,0z"/>
    <path class="fil2 str0" d="M41 29c1,0 1,0 1,0 0,0 1,1 1,1l0 0c0,-1 0,-1 0,-1 0,0 0,0 0,0 1,0 1,0 1,0 0,-1 0,0 0,0 0,0 0,-1 0,-1 0,0 0,0 0,0l-3 1z"/>
    <path class="fil2 str0" d="M39 33c0,0 0,0 1,0 0,0 -1,-1 -1,-1 -1,0 -1,-1 -1,0 0,0 0,0 0,1 1,0 1,0 1,0z"/>
   </g>
  </g>
 </g>
</svg>
