<?xml version="1.0" encoding="UTF-8"?>
<!DOCTYPE svg PUBLIC "-//W3C//DTD SVG 1.1//EN" "http://www.w3.org/Graphics/SVG/1.1/DTD/svg11.dtd">
<!-- Creator: CorelDRAW X7 -->
<svg xmlns="http://www.w3.org/2000/svg" xml:space="preserve" width="30px" height="30px" version="1.1" style="shape-rendering:geometricPrecision; text-rendering:geometricPrecision; image-rendering:optimizeQuality; fill-rule:evenodd; clip-rule:evenodd"
viewBox="0 0 30 30"
 xmlns:xlink="http://www.w3.org/1999/xlink">
 <defs>
  <style type="text/css">
   <![CDATA[
    .fil0 {fill:none}
    .fil2 {fill:#D6A84C}
    .fil1 {fill:#805F1B}
    .fil3 {fill:#9D7526}
   ]]>
  </style>
 </defs>
 <g id="Layer_x0020_1">
  <metadata id="CorelCorpID_0Corel-Layer"/>
  <g id="_2269980934416">
   <rect class="fil0" width="30" height="30"/>
   <g>
    <path class="fil1" d="M16 28c0,0 0,-1 -1,-1 0,0 0,0 0,0 -1,0 -1,0 -1,0 0,-1 0,-5 0,-6 0,0 0,-4 0,-4 0,0 5,-7 5,-8 0,0 1,-1 1,-1 0,0 1,0 1,-1 0,0 0,0 0,0l-3 0 -6 0 0 2 6 0c0,0 -1,2 -2,3 0,1 -1,2 -2,3 0,0 0,0 -1,0 0,0 0,0 0,0 -1,-2 -3,-3 -4,-4 0,-1 -1,-2 -1,-2l3 0 0 -2 -5 0c0,0 1,1 1,2 0,0 1,1 1,2 1,1 2,2 3,4 1,0 1,1 2,1 0,1 0,1 0,1 0,1 0,9 0,10 0,0 0,0 -1,0 0,0 -1,1 -1,1l5 0z"/>
    <path class="fil2" d="M11 7l0 2 -3 0c0,0 1,1 1,2 1,1 3,2 4,4 0,0 0,0 0,0 1,0 1,0 1,0 1,-1 2,-2 2,-3 1,-1 2,-3 2,-3l-6 0 0 -2c0,0 -1,-3 -1,-3l-1 -2c0,0 0,0 0,0l-2 0c-1,0 -2,0 -3,0l0 0 5 0c0,1 0,2 0,2 1,1 1,2 1,3z"/>
    <path class="fil3" d="M18 7l3 0c0,0 0,0 0,0 0,1 -1,1 -1,1 0,0 -1,1 -1,1 0,0 2,1 3,1 1,0 1,0 1,0 0,-1 0,0 0,-1 1,0 1,0 1,0 0,-1 0,-1 0,-1 0,0 0,0 1,0 0,0 0,0 0,-1 0,0 0,0 0,-1 0,0 0,0 0,0 -1,0 -1,-1 -1,-1 0,0 0,0 0,-1l-1 0c0,0 0,0 0,0 0,0 0,0 0,0 0,0 0,0 0,0l-1 -1c-1,0 -2,0 -2,1 -1,0 -1,0 -2,1 0,0 0,0 0,0 0,1 0,1 0,1 0,0 0,1 0,1z"/>
    <rect class="fil1" x="13" y="16" width="1.29559" height="11.5089"/>
   </g>
  </g>
 </g>
</svg>
