<?xml version="1.0" encoding="UTF-8"?>
<!DOCTYPE svg PUBLIC "-//W3C//DTD SVG 1.1//EN" "http://www.w3.org/Graphics/SVG/1.1/DTD/svg11.dtd">
<!-- Creator: CorelDRAW X7 -->
<svg xmlns="http://www.w3.org/2000/svg" xml:space="preserve" width="30px" height="30px" version="1.1" style="shape-rendering:geometricPrecision; text-rendering:geometricPrecision; image-rendering:optimizeQuality; fill-rule:evenodd; clip-rule:evenodd"
viewBox="0 0 30 30"
 xmlns:xlink="http://www.w3.org/1999/xlink">
 <defs>
  <style type="text/css">
   <![CDATA[
    .fil0 {fill:none}
    .fil1 {fill:#805F1B}
    .fil2 {fill:#9D7526}
   ]]>
  </style>
 </defs>
 <g id="Layer_x0020_1">
  <metadata id="CorelCorpID_0Corel-Layer"/>
  <g id="_2270345553872">
   <rect class="fil0" width="30.2669" height="30.2669"/>
   <g>
    <path class="fil1" d="M27 15c0,0 0,0 -1,0 -2,-1 -4,-1 -6,0 -6,2 -11,6 -17,0 -1,-1 -1,-1 -2,-2 0,0 0,0 0,0 0,0 1,1 1,1 0,1 0,1 1,2 0,1 1,2 2,2 2,2 4,3 8,2 2,0 4,-2 6,-3 2,0 3,-1 4,-1 1,-1 2,-1 4,-1z"/>
    <path class="fil2" d="M8 16c0,1 2,1 3,1 2,-1 4,-2 6,-2 0,0 1,-1 1,-1 0,0 -1,0 -2,-2 -2,-2 -1,-6 3,-7 1,0 1,0 1,0 0,0 -1,0 -2,0 -3,0 -5,1 -6,3 -1,3 0,6 -3,8 -1,0 -1,0 -1,0z"/>
    <path class="fil1" d="M2 20c1,0 1,0 1,0 2,2 4,3 6,4 6,3 13,2 17,-3 1,-1 3,-3 3,-5 0,-1 1,-2 0,-3 0,1 0,2 -1,4 -1,1 -2,2 -3,3 -1,1 -4,3 -6,3 -4,1 -10,0 -13,-1 -1,-1 -2,-1 -3,-2 0,0 0,0 -1,0z"/>
    <path class="fil2" d="M9 21c3,2 7,2 11,0 1,0 2,-1 3,-2 1,0 2,-1 2,-1 0,0 1,-1 1,-2 -5,0 -7,4 -14,5l-3 0z"/>
    <path class="fil2" d="M18 8c-3,0 -2,4 0,4 1,0 2,-1 2,-2 0,-1 -1,-2 -2,-2z"/>
   </g>
  </g>
 </g>
</svg>
