<?xml version="1.0" encoding="UTF-8"?>
<!DOCTYPE svg PUBLIC "-//W3C//DTD SVG 1.1//EN" "http://www.w3.org/Graphics/SVG/1.1/DTD/svg11.dtd">
<!-- Creator: CorelDRAW X7 -->
<svg xmlns="http://www.w3.org/2000/svg" xml:space="preserve" width="2.5332mm" height="1.93mm" version="1.1" style="shape-rendering:geometricPrecision; text-rendering:geometricPrecision; image-rendering:optimizeQuality; fill-rule:evenodd; clip-rule:evenodd"
viewBox="0 0 34 26"
 xmlns:xlink="http://www.w3.org/1999/xlink">
 <defs>
  <style type="text/css">
   <![CDATA[
    .fil1 {fill:#387A78}
    .fil0 {fill:#4FB1AB}
   ]]>
  </style>
 </defs>
 <g id="Layer_x0020_1">
  <metadata id="CorelCorpID_0Corel-Layer"/>
  <g id="_2900242574816">
   <path class="fil0" d="M17 20c-1,0 -2,-1 -2,-1 -1,-1 -2,-2 -3,-3 0,0 0,0 0,0 -1,0 -1,-1 0,-1 0,-1 1,-1 1,-1l-11 0c0,1 0,4 0,5 1,0 1,1 1,2 1,0 1,1 2,1 0,1 0,1 0,1 2,1 4,2 7,2 1,0 2,0 3,0 0,-2 1,-3 1,-4 0,-1 0,-1 1,-1z"/>
   <path class="fil0" d="M14 12l5 0c0,-1 1,-2 1,-3 1,-1 1,-2 2,-2 0,-1 0,-1 0,-1 0,0 1,0 1,0 1,-2 0,-4 -2,-4 -1,1 -1,1 -1,1l-5 6c0,0 -1,2 -1,3z"/>
   <path class="fil1" d="M13 16c0,0 1,1 2,1 1,1 1,1 3,2 1,0 2,1 3,0 1,0 2,0 2,-1 0,0 0,0 0,-1 0,0 0,0 0,0 0,-1 0,-1 -1,-1 0,-1 0,-1 0,-1 -2,-1 -4,-1 -6,0 0,0 -2,0 -3,1z"/>
   <path class="fil1" d="M24 19c0,1 0,1 0,2 0,1 0,1 0,1 1,1 3,2 4,3 0,0 2,1 2,1 0,-3 0,-6 -2,-8 -1,0 -1,0 -1,0 -1,0 -2,0 -3,0 0,0 0,0 0,1z"/>
   <path class="fil0" d="M19 13c0,0 0,-1 0,-1 -1,0 -3,0 -5,0l-12 0c-1,0 -1,0 -1,0 -1,1 0,2 0,2 1,0 3,0 4,0l9 0c0,0 0,0 1,0 1,-1 2,-1 3,-1 0,0 1,0 1,0z"/>
   <path class="fil0" d="M4 11c0,-1 1,-2 1,-3 0,-1 0,-3 -1,-4 -1,-2 -2,-3 -4,-4l0 0c0,0 0,0 0,0 0,1 0,2 0,3 0,2 1,4 2,6 0,1 1,1 2,2z"/>
   <path class="fil1" d="M21 14c1,1 1,1 2,2 0,0 0,1 1,1 0,0 0,-1 0,-1 0,0 1,-1 1,-1 0,0 0,0 1,0 0,0 0,0 0,-1 0,-2 -1,-5 -2,-7l-1 0c0,0 0,0 0,0 0,0 0,1 0,1 -1,2 -2,4 -2,6z"/>
   <path class="fil1" d="M17 26c0,0 1,-1 1,-1 2,0 4,-1 5,-3 1,0 1,-1 1,-3 0,0 0,-1 0,-1 -1,1 -2,1 -2,1 -1,1 -2,1 -3,1 0,0 0,0 -1,0 0,1 0,1 0,1 0,1 -1,3 -1,5z"/>
   <path class="fil1" d="M29 19c1,0 2,-1 3,-1 0,-1 1,-1 1,-2 0,0 0,0 0,0l1 0c0,-1 -2,-1 -3,-1 -2,-1 -4,-1 -6,0 0,1 -1,2 -1,2 1,0 2,0 3,1 0,0 1,0 1,0 0,1 1,1 1,1z"/>
   <path class="fil0" d="M5 11c2,-1 4,-3 4,-5 -1,0 -2,1 -3,2 0,0 -1,2 -1,3z"/>
  </g>
 </g>
</svg>
