<?xml version="1.0" encoding="UTF-8"?>
<!DOCTYPE svg PUBLIC "-//W3C//DTD SVG 1.1//EN" "http://www.w3.org/Graphics/SVG/1.1/DTD/svg11.dtd">
<!-- Creator: CorelDRAW X7 -->
<svg xmlns="http://www.w3.org/2000/svg" xml:space="preserve" width="30px" height="30px" version="1.1" style="shape-rendering:geometricPrecision; text-rendering:geometricPrecision; image-rendering:optimizeQuality; fill-rule:evenodd; clip-rule:evenodd"
viewBox="0 0 30 30"
 xmlns:xlink="http://www.w3.org/1999/xlink">
 <defs>
  <style type="text/css">
   <![CDATA[
    .fil0 {fill:none}
    .fil2 {fill:#0B3F59}
    .fil4 {fill:url(#id0)}
    .fil1 {fill:url(#id1)}
    .fil3 {fill:url(#id2)}
   ]]>
  </style>
  <linearGradient id="id0" gradientUnits="userSpaceOnUse" x1="9.29409" y1="19.0098" x2="26.0409" y2="19.0098">
   <stop offset="0" style="stop-opacity:1; stop-color:#0B3F59"/>
   <stop offset="1" style="stop-opacity:1; stop-color:#419DAB"/>
  </linearGradient>
  <linearGradient id="id1" gradientUnits="userSpaceOnUse" xlink:href="#id0" x1="0.987402" y1="16.3524" x2="27.0413" y2="16.3524">
  </linearGradient>
  <linearGradient id="id2" gradientUnits="userSpaceOnUse" xlink:href="#id0" x1="2.57244" y1="19.252" x2="29.2772" y2="19.252">
  </linearGradient>
 </defs>
 <g id="Layer_x0020_1">
  <metadata id="CorelCorpID_0Corel-Layer"/>
  <g id="_1598345985968">
   <rect class="fil0" width="30" height="30"/>
   <path class="fil1" d="M27 15c0,0 -1,0 -1,0 -2,-1 -4,-1 -7,0 -5,1 -10,5 -16,0 0,-1 -1,-2 -2,-2 0,0 0,0 0,-1 0,1 1,2 1,2 0,1 0,1 1,2 1,1 1,1 2,2 2,2 4,3 8,2 2,-1 4,-2 6,-3 2,0 3,-1 4,-1 1,-1 2,-1 4,-1z"/>
   <path class="fil2" d="M8 16c0,1 2,0 3,0 2,0 4,-1 6,-1 0,-1 1,-1 1,-1 0,0 -1,0 -2,-2 -2,-2 -1,-6 3,-7 1,0 1,0 1,0 0,0 -1,0 -2,0 -3,0 -5,1 -6,3 -1,3 0,6 -3,8 -1,0 -1,0 -1,0z"/>
   <path class="fil3" d="M3 19c0,0 0,1 0,1 2,2 4,3 6,4 6,3 12,1 17,-3 1,-1 3,-3 3,-5 0,-1 0,-2 0,-3 0,1 0,2 -1,4 -1,1 -2,2 -3,2 -1,2 -4,3 -6,4 -4,1 -10,0 -13,-2 -1,0 -2,-1 -3,-1 0,0 0,0 0,-1z"/>
   <path class="fil4" d="M9 21c3,1 7,1 11,0 1,0 2,-1 3,-2 1,0 2,-1 2,-1 0,-1 1,-2 1,-2 -5,0 -7,4 -14,5l-3 0z"/>
   <path class="fil2" d="M18 8c-3,0 -2,4 0,4 1,0 2,-1 2,-2 0,-1 -1,-2 -2,-2z"/>
   <rect class="fil0" width="30" height="30"/>
  </g>
 </g>
</svg>
