<?xml version="1.0" encoding="UTF-8"?>
<!DOCTYPE svg PUBLIC "-//W3C//DTD SVG 1.1//EN" "http://www.w3.org/Graphics/SVG/1.1/DTD/svg11.dtd">
<!-- Creator: CorelDRAW X7 -->
<svg xmlns="http://www.w3.org/2000/svg" xml:space="preserve" width="30px" height="30px" version="1.1" style="shape-rendering:geometricPrecision; text-rendering:geometricPrecision; image-rendering:optimizeQuality; fill-rule:evenodd; clip-rule:evenodd"
viewBox="0 0 30 30"
 xmlns:xlink="http://www.w3.org/1999/xlink">
 <defs>
  <style type="text/css">
   <![CDATA[
    .fil0 {fill:none}
    .fil1 {fill:url(#id0)}
   ]]>
  </style>
  <linearGradient id="id0" gradientUnits="userSpaceOnUse" x1="0.855118" y1="15" x2="29.1437" y2="15">
   <stop offset="0" style="stop-opacity:1; stop-color:#0B3F59"/>
   <stop offset="1" style="stop-opacity:1; stop-color:#419DAB"/>
  </linearGradient>
 </defs>
 <g id="Layer_x0020_1">
  <metadata id="CorelCorpID_0Corel-Layer"/>
  <g id="_1598397636912">
   <g>
    <rect class="fil0" width="29.9976" height="29.9976"/>
    <rect class="fil0" width="30" height="30"/>
    <path class="fil1" d="M5 8l0 0c0,0 0,0 0,0 -3,0 -5,5 -4,9 2,3 4,5 8,6 7,1 11,-4 15,-5 3,0 4,1 5,2 0,-3 -3,-5 -6,-5 -3,0 -5,2 -8,3 -5,2 -9,-4 -6,-6 2,-1 3,0 4,0 0,-3 -2,-3 -4,-3 0,-1 0,-1 1,-1 -2,-2 -4,0 -5,0z"/>
   </g>
   <rect class="fil0" width="30" height="30"/>
  </g>
 </g>
</svg>
