<?xml version="1.0" encoding="UTF-8"?>
<!DOCTYPE svg PUBLIC "-//W3C//DTD SVG 1.1//EN" "http://www.w3.org/Graphics/SVG/1.1/DTD/svg11.dtd">
<!-- Creator: CorelDRAW X7 -->
<svg xmlns="http://www.w3.org/2000/svg" xml:space="preserve" width="30px" height="30px" version="1.1" style="shape-rendering:geometricPrecision; text-rendering:geometricPrecision; image-rendering:optimizeQuality; fill-rule:evenodd; clip-rule:evenodd"
viewBox="0 0 30 30"
 xmlns:xlink="http://www.w3.org/1999/xlink">
 <defs>
  <style type="text/css">
   <![CDATA[
    .fil0 {fill:none}
    .fil1 {fill:url(#id0)}
    .fil2 {fill:url(#id1)}
    .fil3 {fill:url(#id2)}
   ]]>
  </style>
  <linearGradient id="id0" gradientUnits="userSpaceOnUse" x1="0.623622" y1="18.1913" x2="29.3776" y2="18.1913">
   <stop offset="0" style="stop-opacity:1; stop-color:#0B3F59"/>
   <stop offset="1" style="stop-opacity:1; stop-color:#419DAB"/>
  </linearGradient>
  <linearGradient id="id1" gradientUnits="userSpaceOnUse" xlink:href="#id0" x1="15.065" y1="7.45157" x2="27.9531" y2="7.45157">
  </linearGradient>
  <linearGradient id="id2" gradientUnits="userSpaceOnUse" xlink:href="#id0" x1="4.56024" y1="7.50591" x2="11.2843" y2="7.50591">
  </linearGradient>
 </defs>
 <g id="Layer_x0020_1">
  <metadata id="CorelCorpID_0Corel-Layer"/>
  <g id="_1598412382736">
   <g>
    <rect class="fil0" width="30" height="30"/>
    <g>
     <path class="fil1" d="M5 26c0,0 1,0 1,0 1,-1 1,-3 1,-4l2 0c0,0 1,3 1,4 0,0 1,0 1,-1 1,0 0,-3 0,-4 -1,-1 0,-1 0,-2 1,-2 0,-4 0,-5 0,0 1,0 1,0l3 -2c0,0 3,2 4,2 -1,1 -1,3 0,5 0,2 0,0 0,4 0,0 -1,2 -1,2 0,1 1,1 2,1 0,-1 0,-3 1,-4l2 0c0,1 0,2 0,3 0,1 1,1 2,1 0,-2 -1,-4 -1,-6 1,-2 1,-4 1,-6 0,0 1,-1 2,-1 2,-1 2,-1 2,-2 0,-2 -3,1 -5,1 -1,-1 0,-1 -2,-1 -3,0 -1,0 -3,1 -5,-2 -3,-2 -8,0 0,0 -1,0 -1,-1 -1,0 -1,0 -2,0 -2,0 -1,0 -2,1 -2,0 -4,-2 -5,-1 -1,1 0,1 1,2 1,0 2,1 3,1 0,2 0,4 0,6 1,1 0,3 0,5 0,0 0,0 0,0l0 1z"/>
     <path class="fil2" d="M18 6c-1,-1 -1,-1 -2,1 0,0 0,1 0,1 0,1 0,1 -1,1l0 0c0,0 0,0 0,0 1,1 3,0 3,-1l0 0c0,1 0,1 1,2 1,0 1,1 2,1 2,0 4,-1 4,-3 1,0 2,2 3,1l0 0c-2,-1 -1,-5 -3,-3l-1 0c0,-1 -1,-2 -2,-2 -2,0 -3,1 -4,2z"/>
     <path class="fil3" d="M7 4c-4,2 -2,8 2,7 4,-1 2,-8 -2,-7z"/>
    </g>
   </g>
   <rect class="fil0" width="30" height="30"/>
  </g>
 </g>
</svg>
