<?xml version="1.0" encoding="UTF-8"?>
<!DOCTYPE svg PUBLIC "-//W3C//DTD SVG 1.1//EN" "http://www.w3.org/Graphics/SVG/1.1/DTD/svg11.dtd">
<!-- Creator: CorelDRAW X7 -->
<svg xmlns="http://www.w3.org/2000/svg" xml:space="preserve" width="30px" height="30px" version="1.1" style="shape-rendering:geometricPrecision; text-rendering:geometricPrecision; image-rendering:optimizeQuality; fill-rule:evenodd; clip-rule:evenodd"
viewBox="0 0 30 30"
 xmlns:xlink="http://www.w3.org/1999/xlink">
 <defs>
  <style type="text/css">
   <![CDATA[
    .str0 {stroke:#805F1B;stroke-width:0.900071}
    .fil4 {fill:none}
    .fil2 {fill:#FEFEFE}
    .fil3 {fill:#805F1B}
    .fil1 {fill:#805F1B}
    .fil0 {fill:#9D7526}
   ]]>
  </style>
 </defs>
 <g id="Layer_x0020_1">
  <metadata id="CorelCorpID_0Corel-Layer"/>
  <g id="_2270313732688">
   <g>
    <path class="fil0" d="M8 13c0,-1 1,-4 2,-5 0,0 1,-1 1,-1 0,0 0,1 0,1 0,2 1,3 1,4 -1,0 -2,0 -3,0 0,1 0,1 -1,1 0,0 0,0 0,0zm14 -10l0 0c0,0 0,0 -1,0 0,1 -1,1 -1,2 0,0 0,0 -1,0 -1,-1 -3,-1 -5,0 0,0 0,0 -1,0 0,0 0,0 0,0 0,0 0,0 1,0 0,-1 0,-1 1,-1 1,0 3,-1 4,-1 0,0 1,0 1,0 1,0 1,0 2,0zm0 1c0,0 0,0 0,0 0,0 0,0 0,0 0,-1 0,0 0,-1 0,0 1,0 1,0 0,0 0,-1 1,-1 -1,0 -1,0 -1,0l0 0 -1 0 0 0c-1,0 -1,0 -1,0 0,0 -1,0 -2,0 0,0 -1,0 -2,0 -1,0 -2,1 -3,1 0,0 -1,0 -1,1 0,0 -1,0 -1,0 -1,0 -1,-1 -1,-1l-2 1c0,0 0,0 0,0 0,1 0,1 0,1 0,1 -1,2 -2,3 0,0 0,0 0,0 0,0 0,0 0,0l-2 2c-1,2 -2,3 -2,6 1,-1 1,-1 2,-1 2,-1 2,0 3,0 0,0 0,0 0,0 0,0 0,-1 1,-1 1,-2 2,-1 4,-1 0,0 0,-1 1,-2 0,0 0,1 0,1 1,0 1,1 1,1l2 3c1,1 2,3 2,4 0,0 0,1 1,2 0,0 0,-1 0,-2 0,0 0,-1 -1,-2l-3 -5c0,0 0,-1 -1,-1 0,0 0,-1 0,-1l0 -1c0,1 1,1 1,2l3 5c1,1 1,1 1,1l1 1c0,0 0,0 0,0 0,1 0,1 0,1 0,-1 0,-1 0,-1 0,0 1,0 1,0 1,0 3,0 4,0 0,0 -1,-1 -1,-1 0,0 0,0 0,0 -1,0 -3,0 -4,0 0,-1 -1,-1 -1,-2l-1 -2c-1,0 -3,-4 -3,-4 0,0 1,0 2,0 0,-1 0,-2 1,-3 1,0 2,0 2,-1 1,0 0,-1 0,-1 0,-1 1,-1 1,-1zm-10 7c0,-1 0,-3 0,-5 0,0 3,2 4,2 0,0 0,1 0,1 1,0 0,0 0,0l0 0c-1,0 -1,0 -2,1 -1,0 -1,1 -2,2l0 -1zm-5 3c0,-1 -1,-1 -1,-1 -1,1 -1,1 -2,1 1,-1 1,-2 1,-2 1,-1 1,-2 2,-2 1,-2 1,-2 2,-3 1,0 1,0 1,0l-1 1c-1,2 -2,4 -2,6zm5 -8c1,0 3,-1 4,-1 1,0 3,0 4,1 0,0 -1,0 -2,1 -1,0 -1,0 -1,1 0,0 0,0 0,0 -1,-1 -2,-1 -2,-1 -1,0 -3,-1 -3,-1zm-2 -2c0,0 0,0 0,0 0,0 0,0 0,0 0,0 0,0 0,0 1,0 1,1 1,1l0 1c-1,-1 -1,-1 -1,-2z"/>
    <path class="fil1" d="M20 21l-1 2c-1,1 -2,3 -3,4 0,0 0,0 0,1 1,-1 3,-1 4,-1l4 0c0,0 0,0 0,-1 0,0 0,0 0,0l0 0c0,-1 -3,-6 -3,-6l-1 0c0,0 0,1 0,1z"/>
    <path class="fil1" d="M15 23c0,-1 0,-1 -1,0 -1,0 -1,0 -2,0 -1,0 -3,0 -5,0 0,0 0,0 0,0 0,0 0,0 0,0 0,0 0,1 1,1l6 3c0,0 1,0 1,0l2 -2c0,-1 0,-1 0,-1l-2 -1z"/>
    <path class="fil1" d="M1 28c0,0 7,-1 7,-1 0,0 1,-1 1,-1 0,0 1,0 1,0l-4 -2 -5 4z"/>
    <path class="fil2" d="M12 12c1,-1 1,-2 2,-2 1,-1 1,-1 2,-1l0 0c0,0 1,0 0,0 0,0 0,-1 0,-1 -1,0 -4,-2 -4,-2 0,2 0,4 0,5l0 1z"/>
    <path class="fil2" d="M8 13c0,0 0,0 0,0 1,0 1,0 1,-1 1,0 2,0 3,0 0,-1 -1,-2 -1,-4 0,0 0,-1 0,-1 0,0 -1,1 -1,1 -1,1 -2,4 -2,5z"/>
    <path class="fil2" d="M12 6c0,0 2,1 3,1 0,0 1,0 2,1 0,0 0,0 0,0 0,-1 0,-1 1,-1 1,-1 2,-1 2,-1 -1,-1 -3,-1 -4,-1 -1,0 -3,1 -4,1z"/>
    <path class="fil2" d="M21 3c1,0 1,0 1,0l0 0c-1,0 -1,0 -2,0 0,0 -1,0 -1,0 -1,0 -3,1 -4,1 -1,0 -1,0 -1,1 -1,0 -1,0 -1,0 0,0 0,0 0,0 1,0 1,0 1,0 2,-1 4,-1 5,0 1,0 1,0 1,0 0,-1 1,-1 1,-2z"/>
    <path class="fil2" d="M7 14c0,-2 1,-4 2,-6l1 -1c0,0 0,0 -1,0 -1,1 -1,1 -2,3 -1,0 -1,1 -2,2 0,0 0,1 -1,2 1,0 1,0 2,-1 0,0 1,0 1,1z"/>
    <path class="fil1" d="M15 28c-1,0 -2,0 -2,-1l-2 0c0,-1 0,-1 -1,-1l-1 1c1,1 2,1 3,1 1,0 2,0 3,0z"/>
    <g>
     <path class="fil3 str0" d="M22 21c0,-1 0,0 0,0 1,0 1,0 1,0 0,1 0,1 0,1 0,-1 0,-1 -1,-1 0,0 0,0 0,0zm0 -1c1,0 1,0 1,0 0,0 0,1 0,1 1,0 1,-1 1,0 0,0 -1,0 -1,0 -1,0 0,0 0,-1 0,0 0,0 -1,0l0 0zm1 -1c0,0 0,0 1,0 0,0 0,0 0,0 1,0 0,1 0,1 0,0 0,0 0,0 0,0 0,0 0,0 0,0 0,0 0,0 0,0 0,0 0,0 0,0 0,0 0,0 0,0 0,0 0,0 0,0 -1,0 0,0 0,-1 0,-1 0,-1 0,0 0,0 0,0 0,0 -1,1 -1,1l0 -1zm2 0c0,0 0,0 1,0 0,0 0,0 0,0 0,0 0,0 0,0 0,0 0,0 -1,0 0,0 0,0 0,0 0,0 0,0 0,0l0 1c0,-1 0,-1 -1,-1 0,0 0,0 0,0l0 0c-1,0 -1,0 -2,0 0,0 -1,0 -1,0 0,0 0,0 0,1l0 0c0,0 1,1 1,1 0,1 1,2 1,2 0,1 1,1 1,1 0,0 0,1 0,1 0,0 0,0 0,0 1,0 1,0 1,0l2 -3c0,-1 1,-1 1,-2 0,0 0,-1 1,-1l0 -1 -4 1z"/>
     <path class="fil3 str0" d="M23 19l0 1c0,0 1,-1 1,-1 0,0 0,0 0,0 0,0 0,0 0,1 -1,0 0,0 0,0 0,0 0,0 0,0 0,0 0,0 0,0 0,0 0,0 0,0 0,0 0,0 0,0 0,0 0,0 0,0 0,0 0,0 0,0 0,0 1,-1 0,-1 0,0 0,0 0,0 -1,0 -1,0 -1,0z"/>
     <path class="fil3 str0" d="M22 20l0 0c1,0 1,0 1,0 0,1 -1,1 0,1 0,0 1,0 1,0 0,-1 0,0 -1,0 0,0 0,-1 0,-1 0,0 0,0 -1,0z"/>
     <path class="fil3 str0" d="M24 19c0,0 0,0 0,0 1,0 1,0 1,1l0 -1c0,0 0,0 0,0 0,0 0,0 0,0 1,0 1,0 1,0 0,0 0,0 0,0 0,0 0,0 0,0 -1,0 -1,0 -1,0l-1 0z"/>
     <path class="fil3 str0" d="M23 22c0,0 0,0 0,-1 0,0 0,0 -1,0 0,0 0,-1 0,0 0,0 0,0 0,0 1,0 1,0 1,1z"/>
    </g>
   </g>
   <rect class="fil4" width="30" height="30"/>
  </g>
 </g>
</svg>
