<?xml version="1.0" encoding="UTF-8"?>
<!DOCTYPE svg PUBLIC "-//W3C//DTD SVG 1.1//EN" "http://www.w3.org/Graphics/SVG/1.1/DTD/svg11.dtd">
<!-- Creator: CorelDRAW X7 -->
<svg xmlns="http://www.w3.org/2000/svg" xml:space="preserve" width="30px" height="30px" version="1.1" style="shape-rendering:geometricPrecision; text-rendering:geometricPrecision; image-rendering:optimizeQuality; fill-rule:evenodd; clip-rule:evenodd"
viewBox="0 0 30 30"
 xmlns:xlink="http://www.w3.org/1999/xlink">
 <defs>
  <style type="text/css">
   <![CDATA[
    .fil0 {fill:none}
    .fil2 {fill:#805F1B}
    .fil1 {fill:#9D7526}
   ]]>
  </style>
 </defs>
 <g id="Layer_x0020_1">
  <metadata id="CorelCorpID_0Corel-Layer"/>
  <g id="_2270307043104">
   <rect class="fil0" width="30" height="30"/>
   <g>
    <path class="fil1" d="M15 21c-1,0 -2,-1 -2,-1 -1,-1 -2,-1 -2,-2 0,0 -1,0 -1,0 0,-1 0,-1 0,-2 1,0 1,0 1,0l-9 0c0,1 0,3 0,4 1,1 1,1 1,2 1,0 1,1 1,1 1,0 1,1 1,1 1,1 3,2 5,2 1,0 3,0 4,-1 0,-1 0,-2 0,-3 0,0 1,-1 1,-1z"/>
    <path class="fil1" d="M12 14l4 0c1,-1 1,-1 2,-2 0,-1 1,-2 1,-3 0,0 0,0 1,0 0,0 0,0 0,0 1,-2 0,-3 -2,-3 0,0 0,0 -1,1l-3 5c0,0 -2,2 -2,2z"/>
    <path class="fil2" d="M12 17c0,1 1,1 1,2 1,0 2,1 3,1 0,1 1,1 2,1 1,0 2,-1 2,-2 1,0 1,0 1,0 -1,0 -1,-1 -1,-1 0,0 0,0 0,-1 -1,0 -1,0 -1,0 -1,-1 -3,-1 -5,0 0,0 -2,0 -2,0z"/>
    <path class="fil2" d="M21 21c0,0 0,1 0,1 0,1 0,1 1,1 0,1 1,2 2,2 1,1 2,1 3,1 -1,-2 -1,-5 -3,-6 0,0 0,0 0,0 -1,-1 -2,-1 -3,-1 0,1 0,1 0,2z"/>
    <path class="fil2" d="M17 15c0,0 0,0 0,-1 -1,0 -3,0 -4,0l-11 0c-1,0 -1,0 -1,0 0,1 0,2 0,2 1,0 3,0 3,0l8 0c0,0 1,0 1,0 1,-1 2,-1 3,-1 0,0 1,0 1,0z"/>
    <path class="fil2" d="M4 13c0,0 0,-2 0,-2 0,-2 0,-3 0,-3 -1,-2 -2,-3 -3,-4l0 0c0,0 0,0 0,0 -1,1 -1,2 -1,3 0,1 1,3 2,5 0,0 1,1 2,1z"/>
    <path class="fil2" d="M19 16c0,1 0,1 1,1 0,1 1,1 1,2 0,0 0,-1 0,-1 1,-1 1,-1 1,-1 0,0 0,0 1,0 0,-1 0,-1 0,-1 0,-2 -1,-4 -2,-6l0 0c0,0 0,0 0,0 0,0 -1,0 -1,1 -1,1 -2,4 -1,5z"/>
    <path class="fil2" d="M15 26c0,0 1,0 1,0 2,-1 3,-2 4,-3 1,0 1,-1 1,-2 0,-1 0,-1 0,-2 0,1 -1,2 -2,2 -1,0 -1,0 -2,0 0,0 -1,0 -1,0 0,1 0,1 0,1 0,1 -1,3 -1,4z"/>
    <path class="fil2" d="M25 21c1,-1 2,-1 3,-2 0,0 1,-1 1,-1 0,0 0,0 0,0l1 -1c-1,0 -2,0 -3,0 -1,-1 -3,-1 -5,0 0,0 -1,1 -1,2 1,0 2,0 3,0 0,0 0,1 1,1 0,0 0,0 0,1z"/>
    <path class="fil2" d="M4 13c2,0 4,-2 4,-4 -1,0 -2,1 -2,1 -1,1 -1,2 -2,3z"/>
   </g>
  </g>
 </g>
</svg>
