<?xml version="1.0" encoding="UTF-8"?>
<!DOCTYPE svg PUBLIC "-//W3C//DTD SVG 1.1//EN" "http://www.w3.org/Graphics/SVG/1.1/DTD/svg11.dtd">
<!-- Creator: CorelDRAW X7 -->
<svg xmlns="http://www.w3.org/2000/svg" xml:space="preserve" width="30px" height="30px" version="1.1" style="shape-rendering:geometricPrecision; text-rendering:geometricPrecision; image-rendering:optimizeQuality; fill-rule:evenodd; clip-rule:evenodd"
viewBox="0 0 30 30"
 xmlns:xlink="http://www.w3.org/1999/xlink">
 <defs>
  <style type="text/css">
   <![CDATA[
    .fil0 {fill:none}
    .fil1 {fill:url(#id0)}
   ]]>
  </style>
  <linearGradient id="id0" gradientUnits="userSpaceOnUse" x1="0.587008" y1="15" x2="29.4106" y2="15">
   <stop offset="0" style="stop-opacity:1; stop-color:#0B3F59"/>
   <stop offset="1" style="stop-opacity:1; stop-color:#419DAB"/>
  </linearGradient>
 </defs>
 <g id="Layer_x0020_1">
  <metadata id="CorelCorpID_0Corel-Layer"/>
  <g id="_1598191601072">
   <g>
    <rect class="fil0" width="30" height="30"/>
    <path class="fil1" d="M7 11c1,3 0,1 1,5 -1,-1 -2,-4 -1,-5zm11 -2l0 0c0,1 0,4 0,6l-1 0 0 -6 0 0 0 6 -1 0 0 -6 -1 0 0 6 0 0 0 -6 -1 0c0,0 0,3 0,4 -1,3 1,3 1,4 1,2 0,3 0,5 0,2 0,4 0,5 -1,0 -3,0 -5,-1 0,-1 1,-5 0,-6 0,0 0,-1 0,-2 0,-2 0,-1 1,-2 3,-3 2,-7 -1,-8 -4,-1 -5,6 -2,8 0,0 0,0 1,1 0,1 -1,3 -1,5 0,1 0,2 0,3 0,0 -2,-1 -2,-2 -3,-3 -4,-7 -3,-11 4,-12 19,-12 23,-2 1,3 2,5 1,8 -1,2 -3,6 -4,6l0 -16c-1,0 -2,5 -3,5 0,3 0,5 0,8 2,1 1,2 1,3 0,1 0,1 0,2 -1,0 -3,1 -4,1 0,-2 0,-3 0,-5 0,-2 0,-3 0,-5 1,-3 2,0 1,-8zm-4 -8c-6,0 -11,4 -13,9 0,2 -1,4 0,6 0,8 7,14 15,13 8,0 14,-7 13,-15 0,-8 -8,-14 -15,-13z"/>
   </g>
   <rect class="fil0" width="30" height="30"/>
  </g>
 </g>
</svg>
