<?xml version="1.0" encoding="UTF-8"?>
<!DOCTYPE svg PUBLIC "-//W3C//DTD SVG 1.1//EN" "http://www.w3.org/Graphics/SVG/1.1/DTD/svg11.dtd">
<!-- Creator: CorelDRAW X7 -->
<svg xmlns="http://www.w3.org/2000/svg" xml:space="preserve" width="2.4619mm" height="2.5526mm" version="1.1" style="shape-rendering:geometricPrecision; text-rendering:geometricPrecision; image-rendering:optimizeQuality; fill-rule:evenodd; clip-rule:evenodd"
viewBox="0 0 37 38"
 xmlns:xlink="http://www.w3.org/1999/xlink">
 <defs>
  <style type="text/css">
   <![CDATA[
    .fil1 {fill:#FEFEFE}
    .fil3 {fill:#03B0AA}
    .fil0 {fill:#387A78}
    .fil2 {fill:#4FB1AB}
    .fil5 {fill:gainsboro}
    .fil4 {fill:#FAFAF9}
   ]]>
  </style>
 </defs>
 <g id="Layer_x0020_1">
  <metadata id="CorelCorpID_0Corel-Layer"/>
  <g id="_2900210096608">
   <path class="fil0" d="M3 9c1,0 1,0 1,0 0,-1 0,0 0,0 0,0 0,0 -1,0zm19 3c1,-1 3,-1 5,-1 -2,1 -1,0 -4,1 -1,1 -1,1 -1,2 -1,1 -2,3 0,4 1,0 1,-2 2,-4 1,0 3,-3 3,-2 1,1 0,4 0,5 0,0 -1,3 -1,4 -1,1 -2,2 -2,3l-2 3c-1,0 -3,0 -4,0 0,-1 -1,-2 -1,-2 -2,-4 -8,-14 -6,-19 1,1 2,1 4,3 1,2 1,3 1,6 4,-2 2,-9 -4,-9 6,-1 7,2 9,3 0,-2 -1,-4 -2,-4 -1,-1 -1,-1 -1,-1 -1,0 0,-1 -3,-1 -2,1 -3,1 -4,2 1,-2 3,-3 7,-3 -1,-1 -1,-2 -2,-2 -1,0 -4,0 -5,2 0,0 0,1 -1,2 0,-2 -1,-3 -2,-3 -1,-1 -4,-2 -5,1 2,0 3,0 4,1 1,0 1,0 2,1 1,1 0,0 1,1 -1,-1 -4,-2 -6,-2 -2,1 -1,1 0,1 -3,0 -4,2 -4,5 1,-1 2,-2 4,-3 3,-1 4,0 6,0 -3,0 -4,0 -6,2 -1,1 -1,1 -1,1 -1,2 0,4 1,6 1,-1 0,-2 1,-3 1,-3 3,-5 5,-6l0 2c0,3 0,5 1,8 0,2 1,4 2,7l1 5c-2,0 -4,1 -5,2 -1,0 -1,1 -2,1 -1,1 -1,1 -2,2 2,0 3,-1 7,-1 8,-1 9,2 22,0 0,0 0,0 0,0 -1,0 -1,0 -1,-1 0,0 -1,0 -1,0 -2,-1 -5,-3 -7,-3l1 -5c1,-2 2,-3 2,-5 0,0 0,-2 0,-3 0,-1 0,-2 0,-3 1,0 2,1 3,2 1,1 1,4 2,5l0 0c1,-2 1,-2 1,-5l0 0c0,0 0,0 0,0 0,0 0,0 -1,0 0,-1 -1,-1 -1,-2l-1 -1c3,0 4,2 5,3 1,-2 0,-3 -2,-4 0,-1 0,0 0,0 -2,-1 -2,-1 -4,0l-1 0c0,0 0,0 1,0 0,-1 0,0 0,-1 2,0 2,-1 4,-1 -1,-2 -2,-1 -4,-1 0,0 0,0 -1,1 0,1 -1,1 -1,2 0,-1 -1,-3 -2,-3 -2,0 -3,-1 -4,1 0,0 2,0 3,1 1,0 1,1 2,1 -1,-1 -3,-2 -6,0 -1,0 -2,1 -2,3 1,0 2,-1 3,-1z"/>
   <path class="fil1" d="M1 32c11,-1 12,3 21,5 11,2 16,-7 13,-11 -2,11 -19,4 -25,3 -4,0 -8,1 -9,3z"/>
   <path class="fil2" d="M15 3c3,0 2,1 3,1 0,0 0,0 1,1 1,0 2,2 2,4 -2,-1 -3,-4 -9,-3 6,0 8,7 4,9 0,-3 0,-4 -1,-6 -2,-2 -3,-2 -4,-3 -2,5 4,15 6,19 2,0 4,0 7,-1 0,-1 1,-2 2,-3 0,-1 1,-4 1,-4 0,-1 1,-4 0,-5 0,-1 -2,2 -3,2 -1,2 -1,4 -2,4 -2,-1 -1,-3 0,-4 0,-1 0,-1 1,-2 0,0 0,0 0,0l-1 0c-1,0 -2,1 -3,1 0,-2 1,-3 2,-3 3,-2 5,-1 6,0 -1,0 -1,-1 -2,-1 -1,-1 -3,-1 -3,-1 1,-2 2,-1 4,-1 1,0 2,2 2,3 0,-1 1,-1 1,-2 0,-2 -3,-4 -6,-5 -2,-1 -6,-1 -8,0z"/>
   <path class="fil3" d="M1 33c12,-1 12,3 21,5 12,2 16,-7 14,-12 -3,12 -20,4 -26,4 -3,0 -7,1 -9,3z"/>
   <path class="fil2" d="M13 23c-1,-3 -2,-5 -2,-7 -1,-3 -1,-5 -1,-8 -2,2 -2,5 -2,8 1,3 3,6 5,7z"/>
   <path class="fil2" d="M28 18c0,2 -1,3 -2,5 3,-2 5,-5 5,-9 -1,-1 -2,-2 -3,-2 0,1 0,2 0,3 0,1 0,3 0,3z"/>
   <path class="fil4" d="M17 25c0,0 1,1 1,2 1,0 3,0 4,0l2 -3c-3,1 -5,1 -7,1z"/>
   <path class="fil2" d="M22 12l1 0c0,0 0,0 0,0 3,-1 2,0 4,-1 -2,0 -4,0 -5,1z"/>
   <path class="fil2" d="M30 10l0 -1c0,1 0,0 0,1 -1,0 -1,0 -1,0l1 0z"/>
   <path class="fil5" d="M3 9c1,0 1,0 1,0 0,0 0,-1 0,0 0,0 0,0 -1,0z"/>
  </g>
 </g>
</svg>
